<svg width="1280" height="355" viewBox="0 0 1280 355" fill="none" xmlns="http://www.w3.org/2000/svg">
<g clip-path="url(#clip0)">
<rect width="1282.49" height="367.764" fill="#081137"/>
<g clip-path="url(#clip1)">
<path d="M520.753 141.343C520.873 141.453 520.983 141.603 521.123 141.673C523.643 142.963 526.523 142.513 529.143 144.643C531.923 146.913 536.373 147.013 539.743 148.743C541.743 149.773 543.593 148.873 545.623 149.663C552.393 152.313 559.323 154.673 566.493 156.143C578.463 158.593 589.613 163.923 601.733 166.003C606.083 166.753 607.663 165.723 607.513 161.493C607.463 160.173 607.613 158.863 608.653 157.793C609.413 157.013 609.693 156.123 608.483 155.353C603.523 152.233 598.773 148.853 593.173 146.733C587.383 144.543 581.563 142.323 575.823 139.983C566.223 136.053 556.263 132.943 546.593 129.103C543.973 128.063 541.333 129.733 538.063 129.103C541.693 127.623 541.563 126.113 536.953 124.563C541.983 123.243 545.253 124.503 548.383 125.703C564.403 131.813 581.013 136.193 597.013 142.403C602.553 144.553 608.583 145.463 614.363 147.033C615.593 147.363 616.683 147.543 617.543 146.493C623.423 139.343 631.573 140.043 639.183 141.173C644.663 141.993 649.183 139.663 654.173 139.073C657.223 138.713 659.663 139.023 661.663 141.683C664.153 145.003 668.333 144.413 671.743 145.173C685.063 148.153 698.403 151.193 711.903 153.043C717.513 153.813 722.623 156.033 728.173 156.733C730.553 157.033 732.753 158.673 729.543 161.373C727.653 162.963 726.083 164.953 723.473 165.923C722.893 164.193 724.263 163.453 724.783 162.383C725.463 161.013 727.783 159.623 726.203 158.183C724.403 156.543 722.983 158.883 721.643 159.943C719.883 161.333 718.463 163.223 716.153 163.923C715.913 163.273 715.683 162.973 715.713 162.693C715.913 160.733 719.253 159.023 716.783 157.003C714.643 155.253 712.793 157.373 711.173 158.763C709.203 160.463 707.073 160.533 704.633 159.903C690.953 156.383 677.253 152.933 663.543 149.533C660.753 148.843 658.503 147.113 655.213 146.973C652.123 146.843 654.653 143.103 654.503 140.623C650.863 144.383 646.453 146.863 642.533 149.983C640.553 151.563 638.753 152.233 636.173 151.383C633.483 150.493 630.563 150.603 627.773 151.243C621.873 152.603 614.573 162.503 614.603 168.643C614.623 171.173 616.613 170.323 617.363 170.213C622.043 169.533 626.693 168.823 631.663 169.233C632.343 170.623 630.523 172.453 631.853 174.403C634.753 171.623 636.363 167.953 638.593 164.843C640.333 162.433 642.473 161.313 644.513 161.723C646.743 162.173 645.453 164.923 645.213 166.523C644.583 170.633 647.003 171.783 650.243 172.463C664.393 175.433 678.533 178.453 692.683 181.403C695.863 182.063 699.023 183.373 702.223 180.853C704.213 179.283 704.743 181.053 704.773 182.773C704.813 184.883 703.563 186.963 704.553 189.163C706.603 189.153 706.503 187.143 707.443 186.163C708.543 185.003 709.163 182.593 710.963 183.133C712.973 183.733 711.933 185.953 711.833 187.533C711.753 188.843 711.263 190.153 712.093 191.753C715.323 190.483 715.173 185.873 718.783 184.863C720.483 187.753 717.723 191.043 719.583 194.213C722.243 192.633 722.713 189.713 724.523 187.893C725.213 187.203 725.813 186.133 726.953 186.583C728.133 187.043 727.793 188.243 727.743 189.213C727.663 190.983 726.903 192.773 727.923 194.933C731.053 193.293 731.273 189.043 734.793 187.713C736.533 190.953 733.803 194.333 735.383 197.763C738.893 195.873 738.583 190.893 742.663 189.603C744.543 192.443 741.733 195.733 743.413 198.883C746.023 197.293 746.543 194.423 748.293 192.553C748.853 191.953 749.393 191.183 750.343 191.473C751.383 191.803 751.123 192.783 751.183 193.583C751.343 195.623 749.883 197.753 751.463 199.863C753.883 199.043 754.163 196.593 755.483 195.013C756.213 194.143 756.743 192.713 758.093 193.103C759.543 193.523 759.113 195.003 759.033 196.113C758.913 197.903 758.343 199.693 759.173 201.963C762.413 200.043 762.583 195.633 766.053 194.273C767.783 196.133 766.453 198.113 766.463 199.983C766.473 200.953 766.093 202.153 767.143 202.673C768.353 203.263 768.813 202.053 769.403 201.293C770.843 199.453 771.223 195.473 774.033 196.413C776.263 197.163 774.193 200.583 774.403 202.803C774.483 203.593 774.243 204.463 775.303 205.213C778.063 203.413 778.243 199.353 781.443 197.573C783.563 200.303 781.243 203.563 782.903 206.493C785.303 205.443 785.543 202.803 786.963 201.143C787.603 200.393 788.113 199.193 789.193 199.403C790.713 199.703 790.363 201.173 790.423 202.293C790.513 203.923 789.893 205.613 790.923 207.463C794.393 206.533 793.913 201.573 797.533 200.773C799.023 202.843 797.883 204.963 797.853 207.023C797.833 207.993 797.553 209.203 798.823 209.533C799.723 209.773 800.243 208.903 800.723 208.213C802.093 206.263 802.533 202.213 805.033 202.903C807.563 203.603 805.433 207.333 805.993 209.663C806.063 209.963 806.293 210.223 806.643 210.833C809.473 209.623 809.613 205.743 812.463 204.573C814.233 206.153 813.233 208.073 813.413 209.773C813.503 210.603 813.473 211.573 814.473 211.783C815.423 211.983 815.913 211.193 816.353 210.473C817.223 209.063 818.013 207.573 819.023 206.273C820.013 204.993 821.553 203.993 822.713 205.763C825.123 209.453 829.093 209.743 832.693 210.713C840.573 212.833 848.463 214.833 856.193 217.483C861.013 219.133 865.963 220.083 869.163 214.233C870.253 212.233 872.473 211.873 874.473 212.343C879.323 213.483 884.953 212.933 887.933 218.413C888.613 219.663 889.933 220.033 891.363 219.023C896.363 215.493 901.833 216.413 907.253 217.563C937.713 224.013 968.133 230.603 998.613 236.943C1019.79 241.343 1041.16 244.883 1062.22 249.803C1077.76 253.433 1093.47 256.143 1109.01 259.753C1128.06 264.173 1147.29 267.853 1166.43 271.913C1189.53 276.813 1212.64 281.723 1235.72 286.733C1256.68 291.283 1277.64 295.863 1298.56 300.593C1316.56 304.673 1334.51 308.993 1352.48 313.193C1370.93 317.513 1389.39 321.803 1407.83 326.133C1413.8 327.533 1418.76 326.213 1422.17 320.863C1425.66 315.373 1425.77 309.543 1423.23 303.683C1422.3 301.553 1420.18 300.873 1418.05 300.153C1398.59 293.543 1378.23 290.683 1358.36 285.813C1338 280.823 1317.41 276.853 1297.03 271.933C1269.87 265.373 1242.48 259.753 1215.24 253.523C1196.75 249.293 1178.38 244.503 1159.89 240.303C1136.23 234.923 1112.48 229.913 1088.78 224.693C1066.84 219.863 1045 214.563 1022.97 210.253C1005.36 206.813 987.913 202.673 970.313 199.193C951.893 195.543 933.543 191.543 915.203 187.493C912.383 186.873 909.653 187.013 907.453 188.223C900.543 192.033 893.673 190.793 886.693 188.903C883.583 188.063 880.533 187.223 877.993 190.303C877.183 191.283 875.723 191.603 874.993 190.333C872.813 186.583 869.033 187.013 865.693 186.753C857.203 186.083 848.863 184.493 840.453 183.303C837.243 182.853 835.243 181.993 837.553 178.343C838.153 177.403 838.773 176.093 837.433 175.243C836.273 174.503 835.213 175.243 834.293 176.033C832.063 177.943 830.373 180.543 827.223 181.553C826.853 178.773 829.693 177.193 829.463 174.273C825.423 174.643 823.973 178.933 820.153 180.253C819.843 177.353 821.733 175.443 822.483 173.323C823.753 169.773 826.383 172.713 828.283 172.863C845.673 174.213 863.033 176.173 880.443 177.073C888.533 177.493 896.653 176.643 904.643 178.783C905.993 179.143 907.783 178.973 909.043 178.373C915.763 175.163 922.483 175.833 929.493 177.383C987.543 190.183 1045.66 202.663 1103.69 215.573C1144.98 224.753 1186.16 234.383 1227.37 243.913C1259.97 251.453 1292.55 259.033 1325.1 266.783C1355.37 273.983 1385.58 281.413 1415.81 288.753C1419.83 289.733 1423.98 289.923 1427.99 291.243C1431.19 292.303 1434.64 291.413 1437.35 289.033C1442.43 284.563 1448.33 284.373 1454.72 284.963C1484.15 287.683 1512.51 295.953 1541.39 301.473C1548.55 302.843 1555.7 304.213 1562.85 305.613C1563.99 305.833 1565.28 305.943 1566.18 306.573C1575.1 312.803 1585.78 313.533 1595.85 316.193C1601.12 317.583 1603.5 322.553 1601.39 327.483C1600.69 329.123 1599.58 329.123 1598.14 328.713C1589.17 326.143 1580.1 324.083 1570.8 323.133C1569.82 323.033 1568.7 322.913 1567.91 322.403C1560.16 317.313 1554.54 322.093 1548.9 326.483C1547.76 327.373 1546.79 328.323 1545.43 327.373C1535.03 320.073 1522.39 320.493 1510.79 317.343C1496.08 313.353 1480.84 311.473 1466.35 306.573C1462.19 305.163 1459.2 306.503 1456.56 309.413C1453.29 313.013 1451.41 317.193 1452.13 322.173C1452.39 323.973 1453.89 323.853 1455.28 323.673C1464.07 322.583 1471.8 326.593 1479.84 328.943C1481.71 329.493 1483.23 330.863 1485.38 329.833C1486.27 329.403 1487.64 329.493 1488.12 330.423C1491.78 337.493 1497.59 334.243 1502.56 333.123C1505.46 332.473 1507.71 331.993 1510.51 333.553C1513.08 334.993 1516.2 335.313 1519.25 335.213C1525.6 335.013 1531.85 336.043 1538.06 337.093C1542.42 337.833 1546.19 340.013 1548.51 344.013C1552.84 351.483 1559.92 354.053 1567.89 355.583C1578 357.523 1588 360.083 1598.08 362.183C1601.1 362.813 1601.63 364.563 1601.64 367.183C1601.67 377.343 1601.91 387.503 1601.89 397.663C1601.81 437.293 1601.67 476.933 1601.51 516.563C1601.48 523.133 1601.45 522.883 1595.37 521.223C1591.56 520.183 1587.49 519.463 1583.56 519.583C1574.05 519.863 1565.8 516.353 1557.46 512.453C1550.7 509.293 1543.51 506.853 1536.12 505.813C1526.19 504.423 1516.77 501.033 1507.21 498.473C1496.64 495.643 1486.04 494.233 1475.28 493.793C1469.84 493.573 1465.16 491.703 1460.86 489.113C1454.7 485.403 1447.87 484.223 1441.19 482.293C1424.44 477.443 1407.36 473.663 1391.09 467.193C1385.96 465.153 1380.52 466.553 1375.23 466.383C1372.02 466.283 1369.4 465.493 1367.24 463.083C1363.64 459.073 1358.9 457.403 1353.78 456.073C1342.7 453.203 1331.77 449.713 1320.69 446.833C1307.95 443.523 1295.41 438.743 1281.85 440.343C1277.4 440.863 1273.06 439.663 1270.27 436.773C1265.99 432.323 1260.53 432.273 1255.37 430.773C1245.24 427.833 1234.84 426.013 1224.64 423.273C1217.51 421.363 1210.14 419.823 1202.84 418.283C1194.86 416.603 1187.13 414.673 1178.82 416.063C1175.51 416.613 1172.52 413.983 1170.02 411.843C1167.31 409.513 1164.16 408.403 1160.89 408.303C1153.64 408.063 1147.31 404.283 1140.13 403.583C1134.51 403.033 1129.1 400.623 1123.5 399.593C1115.14 398.053 1106.87 396.243 1098.66 394.053C1092.99 392.543 1087.25 391.823 1081.37 393.073C1077.82 393.823 1074.72 393.123 1072.97 389.463C1072.11 387.673 1070.59 386.873 1068.67 386.423C1054.81 383.133 1040.89 380.083 1027.16 376.333C1017.71 373.753 1007.9 372.973 998.563 369.923C996.423 369.223 993.953 369.423 991.633 369.393C986.883 369.353 981.873 370.533 978.623 365.353C978.063 364.463 976.273 364.233 974.993 363.903C964.533 361.253 954.113 358.453 943.583 356.113C931.783 353.493 920.033 350.753 908.703 346.473C906.703 345.723 904.643 345.953 902.803 346.173C895.533 347.013 890.243 342.283 884.073 340.083C874.753 336.763 865.143 334.263 855.893 330.913C845.743 327.243 835.353 324.323 825.303 320.473C821.623 319.063 818.193 319.173 814.573 319.463C812.063 319.663 810.303 319.283 808.943 316.613C806.623 312.033 801.263 312.093 797.273 310.933C780.703 306.123 764.403 300.423 747.823 295.673C741.403 293.833 734.863 292.793 728.193 294.713C726.633 295.163 724.963 295.243 723.113 295.523C723.843 293.263 727.483 294.133 726.923 292.073C726.363 290.033 723.783 289.283 721.693 288.713C713.203 286.393 704.543 284.593 696.213 281.793C682.363 277.143 667.923 274.723 654.083 270.093C650.793 268.993 647.493 269.733 644.203 270.313C640.633 270.943 637.063 271.513 632.743 272.233C636.133 270.213 639.563 270.203 642.353 267.713C640.463 265.433 637.733 264.833 635.183 263.973C623.713 260.113 612.203 256.393 600.773 252.433C595.603 250.633 590.473 248.623 585.533 246.273C577.893 242.643 570.113 243.543 561.683 245.593C563.543 242.923 567.773 244.143 567.393 241.223C567.053 238.683 563.613 239.123 561.483 238.463C555.923 236.743 550.283 235.273 544.763 233.473C542.983 232.893 540.353 232.213 540.603 229.853C540.823 227.733 543.483 227.583 545.133 227.603C551.743 227.683 558.133 225.803 564.943 226.683C572.953 227.713 581.203 227.043 589.323 227.063C598.993 227.083 608.553 227.793 618.143 228.563C621.093 228.803 624.093 229.273 627.323 228.283C626.713 226.043 624.663 226.033 623.183 225.343C614.253 221.183 605.933 216.403 603.633 205.683C602.973 202.583 600.333 203.173 598.443 202.963C582.223 201.153 565.993 198.643 549.693 198.743C534.323 198.833 522.313 193.863 510.563 183.713C495.143 170.403 479.173 157.373 461.113 147.463C457.323 145.383 453.333 143.683 449.443 141.793C448.053 141.113 446.663 140.303 447.073 138.473C447.433 136.883 448.853 136.843 450.243 136.683C466.313 134.893 482.343 134.163 498.383 137.073C503.893 138.073 509.093 135.023 515.713 135.043C511.803 136.653 508.873 137.863 505.643 139.193C508.913 142.363 511.653 140.863 514.443 139.193C517.423 137.403 519.993 136.973 520.803 141.433C518.643 139.723 516.503 138.133 514.503 142.283C516.803 142.073 519.133 145.473 520.753 141.343ZM548.213 186.823C549.603 183.663 547.703 183.003 545.203 183.033C543.873 183.053 541.543 182.203 541.583 184.293C541.623 186.533 544.043 186.503 545.873 186.583C546.693 186.623 547.523 186.643 548.343 186.663C546.763 189.133 548.913 188.853 550.163 188.993C558.233 189.893 566.303 190.883 574.403 191.483C577.213 191.693 580.093 193.643 583.253 191.573C581.073 188.003 577.663 186.783 574.303 188.043C569.483 189.863 565.003 189.933 560.293 188.193C558.543 187.543 556.693 187.803 554.893 188.283C554.533 188.383 554.083 188.133 553.783 188.063C553.713 186.123 556.353 187.413 556.353 185.623C552.313 183.433 552.313 183.433 548.213 186.823ZM859.093 259.523C859.173 269.243 859.963 270.233 869.613 271.603C873.863 272.203 877.703 273.383 880.643 276.743C882.293 278.633 883.983 279.323 885.943 276.823C886.923 275.573 888.813 274.113 890.023 276.303C893.843 283.223 900.933 283.293 907.223 284.523C917.443 286.513 927.773 287.803 938.023 289.863C946.433 291.553 954.683 293.863 963.063 295.453C975.043 297.713 987.353 298.163 998.733 303.263C1000.16 303.903 1002.02 303.583 1003.66 303.803C1008.6 304.453 1013.74 304.493 1018.43 305.973C1028.54 309.163 1038.95 311.143 1049.05 314.303C1058.23 317.173 1067.92 317.583 1077.17 319.853C1088.07 322.523 1098.89 325.323 1109.99 327.193C1114.77 327.993 1119.95 328.003 1124.38 329.933C1134.15 334.203 1144.88 333.373 1154.86 336.433C1163.07 338.953 1171.94 338.803 1179.95 342.373C1183.32 343.873 1187.01 345.173 1190.62 344.313C1197.85 342.593 1204.28 344.613 1211.04 346.813C1214.29 347.873 1216.5 351.173 1220.42 350.593C1238.84 347.863 1256.68 350.233 1274.34 356.003C1280.81 358.113 1287.2 360.773 1294.43 360.943C1300.48 361.093 1306.91 361.393 1312.67 363.203C1325.87 367.353 1339.69 368.193 1352.98 371.673C1353.93 371.923 1355.14 372.343 1355.76 371.353C1356.58 370.043 1355.26 369.283 1354.54 368.433C1352.31 365.833 1349.03 367.673 1346.58 366.633C1337.39 362.763 1327.8 360.613 1318.03 358.843C1307.2 356.893 1296.5 354.243 1285.78 351.663C1272.94 348.573 1259.99 345.873 1247.08 343.033C1240.05 341.483 1233.69 338.133 1226.65 336.643C1221.36 335.533 1215.82 336.543 1210.82 334.983C1198.43 331.133 1185.58 329.113 1173.25 325.353C1159.04 321.023 1144.39 319.043 1130.08 315.363C1118.49 312.383 1106.68 310.273 1094.98 307.753C1077.58 304.013 1060.18 300.253 1042.79 296.513C1027.55 293.233 1012.61 288.573 997.153 286.333C990.213 285.323 983.603 283.153 976.823 281.563C966.643 279.173 956.333 277.233 946.183 274.783C929.693 270.793 913.103 267.313 896.553 263.673C894.063 263.123 891.253 265.233 889.283 263.373C882.573 257.053 874.153 255.593 865.593 254.143C859.003 253.083 859.033 252.883 859.093 259.523ZM776.333 243.633C778.553 245.783 779.203 252.263 783.503 245.953C783.933 245.313 784.853 245.653 785.083 246.353C786.283 249.993 788.953 249.223 791.973 249.673C797.023 250.413 801.343 255.113 807.213 252.513C807.973 252.173 808.493 253.363 808.883 254.103C809.613 255.473 809.523 257.873 811.773 257.513C813.553 257.233 813.133 255.093 813.613 253.743C814.003 252.643 814.363 251.283 815.793 251.423C816.983 251.543 816.913 252.863 817.153 253.813C818.733 260.043 821.053 262.113 827.953 262.423C834.023 262.693 839.563 265.053 845.133 266.813C853.353 269.413 855.393 268.603 855.363 259.913C855.353 257.943 855.023 255.943 854.633 254.003C854.233 252.043 852.973 250.693 850.883 250.533C841.653 249.863 833.273 245.713 824.293 244.033C821.583 243.523 819.023 243.133 816.923 245.523C816.243 246.293 814.943 247.073 814.623 245.583C813.053 238.233 805.873 240.593 801.573 238.703C798.273 237.253 794.193 235.123 789.613 235.533C787.843 235.693 785.663 232.983 783.013 235.023C782.253 235.613 781.193 234.583 780.553 233.763C779.933 232.963 779.113 231.873 778.143 232.613C775.683 234.503 774.203 233.093 772.663 231.393C771.803 230.433 770.773 229.893 769.613 230.803C767.763 232.253 766.553 231.193 765.393 229.853C764.363 228.663 763.333 227.623 761.583 228.673C759.843 229.713 758.433 229.083 757.163 227.703C756.523 227.003 755.493 225.603 754.813 226.423C751.313 230.673 750.543 226.343 748.953 224.713C748.253 223.993 747.553 222.863 746.553 223.743C743.883 226.103 742.413 224.233 740.833 222.403C740.303 221.783 739.433 220.833 738.813 221.733C736.443 225.163 734.813 223.323 733.093 221.173C732.343 220.243 731.403 220.163 730.473 220.913C728.633 222.393 727.543 221.063 726.223 219.953C723.093 217.323 717.883 220.103 715.313 215.863C714.983 216.233 714.623 216.573 714.323 216.963C713.743 217.703 712.663 218.243 712.233 217.543C709.993 213.853 706.303 215.493 703.253 214.683C700.273 213.893 699.643 215.083 699.353 217.393C699.093 219.533 698.753 221.693 699.333 223.843C699.853 225.773 700.143 227.893 702.253 228.793C705.053 229.993 704.683 226.133 706.593 225.803C708.583 229.683 708.593 229.693 713.193 228.703C714.173 228.493 714.843 228.873 715.273 229.623C717.343 233.203 719.533 234.603 721.703 229.863C724.273 231.253 724.523 238.603 729.073 232.063C730.093 230.603 730.913 232.503 731.283 233.553C731.893 235.313 732.833 236.953 734.813 235.483C737.123 233.763 738.223 234.533 739.473 236.653C740.693 238.713 742.173 239.803 743.693 236.693C744.523 234.983 745.553 235.003 746.493 236.793C747.853 239.373 748.893 243.143 752.613 238.863C755.023 242.793 760.953 240.503 761.853 241.723C764.893 245.843 766.503 245.033 768.663 241.383C772.713 248.113 772.713 248.113 776.333 243.633ZM695.453 218.803C694.613 216.623 695.923 213.683 692.383 212.703C680.843 209.493 668.913 208.313 657.263 205.693C652.323 204.583 647.333 203.493 642.043 204.153C639.083 204.523 638.353 205.523 638.463 208.113C638.693 213.333 642.553 216.963 648.913 217.413C653.253 217.723 657.413 218.833 661.653 219.543C669.183 220.813 676.283 223.833 683.933 224.533C686.213 224.743 688.763 224.053 690.713 225.613C693.033 227.473 693.953 226.373 694.483 224.183C694.903 222.413 695.133 220.603 695.453 218.803ZM645.753 234.103C647.293 236.423 649.613 237.053 652.003 237.603C658.293 239.063 664.713 240.163 670.833 242.173C681.893 245.813 693.293 247.983 704.533 250.823C708.353 251.783 711.913 250.923 715.583 249.023C691.923 245.653 669.413 237.533 645.753 234.103ZM610.223 196.923C610.183 202.413 615.973 208.243 621.483 208.343C622.523 208.363 622.843 207.823 623.223 206.993C626.243 200.243 624.303 195.563 617.393 193.083C616.923 192.913 616.433 192.813 615.963 192.663C610.823 191.113 610.263 191.533 610.223 196.923ZM715.633 253.173C731.553 256.623 746.633 259.883 761.833 263.173C761.743 261.713 760.813 261.423 760.103 261.213C749.493 258.013 738.943 254.583 728.203 251.873C724.553 250.953 720.243 248.533 715.633 253.173ZM626.953 189.903C624.093 196.813 625.483 203.093 626.883 209.333C627.073 210.173 628.063 210.883 628.783 211.543C630.963 213.563 632.673 213.243 633.463 210.303C634.523 206.323 635.253 202.283 634.963 198.003C633.093 198.033 633.013 201.293 630.413 199.813C626.483 197.563 627.973 193.693 626.953 189.903ZM558.063 183.563C565.983 192.713 574.403 183.573 578.353 185.143C574.383 184.353 566.703 183.233 558.063 183.563ZM1366.21 372.253C1370.18 374.503 1373.76 377.453 1378.57 376.993C1379.79 376.883 1380.98 376.683 1381.25 375.263C1381.5 373.963 1380.72 372.413 1379.73 372.463C1375.23 372.673 1370.81 369.983 1366.21 372.253ZM1402.51 379.393C1402.05 377.853 1401.03 376.813 1399.31 376.893C1397.81 376.973 1396.67 377.823 1396.95 379.463C1397.26 381.273 1398.8 381.723 1400.38 381.673C1401.67 381.633 1402.58 380.953 1402.51 379.393Z" fill="white" fill-opacity="0.3"/>
</g>
</g>
<defs>
<clipPath id="clip0">
<rect width="1280" height="355" fill="white"/>
</clipPath>
<clipPath id="clip1">
<rect width="1346" height="765" fill="white" transform="translate(0 -134)"/>
</clipPath>
</defs>
</svg>
