<svg width="1280" height="355" viewBox="0 0 1280 355" fill="none" xmlns="http://www.w3.org/2000/svg">
<g clip-path="url(#clip0)">
<rect width="1282.49" height="367.764" fill="#081137"/>
<g clip-path="url(#clip1)">
<path d="M1392.53 404.795C1390.33 403.793 1388.12 403.906 1385.87 404.598C1376.64 407.478 1367.14 407.704 1357.69 408.495C1348.58 409.271 1339.5 410.471 1330.4 411.361C1312.12 413.14 1293.82 414.566 1275.58 416.656C1266.27 417.729 1256.92 416.91 1247.64 418.294C1242.32 419.084 1237.15 417.531 1231.98 416.571C1228.31 415.893 1228.2 412.716 1228.7 409.314L1228.82 409.455C1227.09 402.593 1225.66 396.084 1229.86 389.25C1232.1 385.607 1233.97 381.597 1236.6 378.208C1237.42 377.149 1238.05 375.455 1236.78 374.509C1235.53 373.591 1234.46 375.003 1233.9 376.232C1232.73 378.886 1231.99 381.823 1229.92 383.814C1229.38 384.336 1228.59 384.972 1228 384.887C1227.13 384.746 1227.25 383.659 1227.25 382.741C1227.31 364.64 1227.36 346.552 1227.37 328.451C1227.37 325.641 1227.42 324.131 1230.83 323.693C1245.74 321.801 1260.57 323.961 1275.43 324.201C1285.23 324.356 1295.02 324.625 1304.82 325.006C1307.36 325.105 1309.87 325.867 1312.41 326.22C1313.78 326.418 1315.39 326.559 1315.38 324.215C1315.36 322.309 1313.99 322.154 1312.73 322.267C1289.49 324.441 1266.31 320.728 1243.08 321.18C1238.81 321.264 1234.69 319.937 1230.49 319.725C1227.63 319.584 1227.17 317.89 1227.38 315.362C1227.61 312.567 1227.94 309.757 1228.41 307.004C1229.11 302.881 1227.52 301.681 1224.23 301.765C1215.89 301.991 1215.5 301.921 1215.55 292.192C1215.62 274.825 1214.43 257.416 1216.31 240.077C1216.52 238.157 1216.7 235.418 1214.69 235.319C1212.22 235.206 1212.37 238.114 1212.66 240.133C1214.94 256.06 1213.44 272.058 1213.54 288.027C1213.56 291.529 1214.19 295.03 1213.27 298.504C1213.1 299.167 1213.19 299.93 1213.01 300.593C1211.81 305.069 1208.46 304.024 1206.18 303.262C1202.6 302.062 1197.15 307.159 1195.5 299.464C1194.37 294.127 1194.38 288.592 1194.82 283.156C1195.7 272.439 1194.97 261.75 1194.84 251.062C1194.79 247.377 1195.39 243.706 1195.49 240.006C1195.55 237.663 1196.01 234.514 1192.74 234.655C1189.84 234.796 1189.08 237.211 1189.41 240.289C1191.17 257.133 1190.07 274.049 1190.24 290.936C1190.32 300.17 1189.85 300.946 1181.78 301.017C1163.09 301.172 1144.38 302.245 1125.71 300.325C1124.82 300.226 1123.73 299.916 1123.03 300.367C1117.53 303.869 1117.75 298.842 1117.74 295.284C1117.72 279.103 1117.93 262.937 1118.08 246.756C1118.1 243.946 1118.37 241.122 1118.3 238.312C1118.26 236.547 1117.93 234.57 1115.84 234.683C1114.06 234.782 1113.77 236.561 1113.66 238.128C1113.53 240.049 1113.45 242.04 1113.69 243.932C1114.45 250.243 1114.52 256.611 1114.21 262.922C1113.64 274.345 1115.11 285.74 1114.3 297.162C1113.97 301.878 1112.43 303.869 1108.32 303.191C1106.55 302.895 1104.7 303.191 1102.9 303.29C1096.99 303.601 1094.71 301.751 1094.32 294.889C1093.99 289.086 1093.18 283.226 1095.54 277.409C1096.67 274.642 1094.02 271.549 1094 268.104C1093.97 259.491 1093.96 250.907 1094.61 242.322C1094.66 241.616 1094.85 240.938 1094.88 240.232C1094.97 238.171 1095.42 235.192 1092.98 235.319C1090.64 235.432 1090.97 238.51 1091.32 240.486C1093 249.904 1092.42 259.421 1092.24 268.895C1092.2 270.603 1092.94 273.597 1089.71 273.032C1087.52 272.651 1086.33 272.213 1086 268.74C1085.05 259.054 1084.64 249.481 1086.03 239.837C1086.31 237.874 1086.69 234.839 1084.18 234.909C1081.71 234.98 1082.15 238.044 1082.49 239.964C1084.29 249.975 1083.24 259.929 1082.28 269.897C1082.19 270.872 1082.61 272.227 1081.27 272.326C1079.52 272.453 1080.09 270.829 1079.96 269.714C1078.75 259.915 1078.14 250.13 1079.8 240.317C1079.86 239.978 1079.92 239.611 1079.9 239.272C1079.8 237.423 1080.25 234.726 1077.9 234.895C1075.68 235.065 1075.98 237.775 1076.23 239.569C1076.87 244.101 1077.3 248.591 1077.21 253.208C1077.12 258.856 1076.46 264.419 1076.15 270.039C1076.02 272.368 1075.06 272.481 1073.57 272.566C1071.82 272.651 1070.98 272.227 1070.69 269.784C1069.59 260.296 1069.48 250.85 1070.5 241.348C1070.83 238.27 1071.67 234.669 1067.31 234.401C1066.34 234.344 1066.18 233.384 1066.24 232.467C1066.36 230.631 1067.52 230.179 1068.79 230.151C1071.66 230.066 1074.53 230.052 1077.38 230.052C1114.04 230.123 1150.71 230.165 1187.36 230.32C1200.46 230.377 1213.58 230.617 1226.68 230.97C1228.82 231.026 1231.03 229.53 1233.42 231.111C1232.44 233.158 1230.95 233.356 1229.5 233.455C1227.23 233.596 1224.96 233.469 1222.71 233.667C1221.28 233.794 1219.1 233.808 1219.52 236.194C1219.9 238.481 1222.1 237.888 1223.33 237.197C1226.5 235.418 1229.82 235.883 1233.11 235.672C1235.58 235.516 1238.44 236.519 1239.11 232.099C1239.34 230.631 1240.58 231.309 1241.4 231.351C1243.96 231.478 1246.66 231.125 1249.06 231.958C1253.24 233.413 1255.64 230.377 1258.03 227.68C1259.52 226.014 1259.41 223.43 1256.95 222.781C1244.15 219.378 1233.83 210.101 1222.54 203.14C1195.68 186.592 1169 169.691 1142.27 152.861C1127.6 143.612 1112.63 134.858 1098.52 124.565C1092.24 119.99 1087.12 117.519 1079.57 119.595C1072.97 121.416 1065.76 120.612 1058.84 120.372C1046.34 119.934 1033.82 120.993 1021.35 119.468C1019.7 119.27 1018.02 119.087 1016.46 118.494C1013.7 117.463 1011.77 118.127 1010.56 121.332C1010.21 122.278 1009.71 123.464 1009.01 123.859C997.636 130.029 989.555 141.339 979.502 149.627C958.573 166.867 938.116 184.898 917.49 202.646C908.997 209.96 900.795 217.782 892.061 224.658C886.133 229.332 880.58 234.909 873.564 237.564C872.451 237.987 870.685 239.23 871.689 240.345C873.213 242.054 873.092 246.572 876.6 245.202C878.996 244.27 881.113 242.477 882.806 246.53C883.242 247.56 885.069 246.826 886.242 246.515C892.557 244.906 898.811 245.965 905.114 246.784C908.368 247.207 909.251 249.156 909.106 252.375C908.828 258.164 908.441 263.953 908.114 269.728C908.042 270.942 907.909 272.185 908.03 273.385C908.138 274.416 908.55 275.559 909.614 275.658C910.993 275.799 911.356 274.43 911.574 273.258C911.768 272.255 911.804 271.126 911.635 270.123C910.159 261.567 910.304 253.01 911.514 244.426C911.78 242.52 912.288 240.275 910.51 239.173C908.429 237.888 908.247 240.642 907.292 241.757C907.001 242.11 906.53 242.35 906.106 242.449C899.731 243.889 893.343 244.835 886.883 242.138C895.085 238.891 903.275 235.771 911.985 235.093C913.183 234.994 914.671 235.361 915.518 234.669C922.002 229.36 929.612 231.069 936.628 230.546C960.871 228.711 985.163 229.897 1009.44 230.109C1016.51 230.165 1023.57 230.123 1030.65 230.123C1030.66 229.473 1030.67 228.824 1030.69 228.188C1000.54 227.948 970.38 227.694 940.233 227.454C940.245 226.988 940.257 226.522 940.257 226.042C1040.86 226.042 1141.46 226.042 1242.07 226.042C1240.09 228.598 1240.05 228.061 1235.27 228.527C1221.25 229.911 1207.24 228.019 1193.24 228.513C1178.52 229.036 1163.78 228.711 1149.07 228.64C1135.7 228.584 1122.31 228.753 1108.92 228.301C1095.82 227.864 1082.69 228.217 1069.58 228.202C1058.27 228.188 1046.96 228.118 1035.65 228.104C1034.92 228.104 1034.19 228.33 1033.47 228.979C1039.09 230.73 1044.88 229.854 1050.56 230.109C1055.3 230.32 1055.58 230.49 1053.93 235.827C1053.44 237.38 1053.5 238.947 1053.78 240.515C1055.28 248.916 1054.6 257.345 1053.97 265.76C1053.51 271.931 1051.48 273.569 1046.12 272.637C1045.53 272.538 1044.95 272.284 1044.36 272.199C1036.38 271.211 1036.26 271.225 1035.45 261.736C1034.77 253.844 1034.93 245.937 1036.09 238.072C1036.59 234.726 1036.13 231.789 1032.27 232.509C1028.45 233.215 1029.78 236.688 1030.12 239.187C1031.53 249.396 1030.95 259.534 1029.65 269.657C1029.59 270.123 1029.36 270.547 1028.86 271.987C1026.74 262.216 1026.71 253.25 1027.29 244.256C1027.44 241.8 1027.92 239.371 1028.04 236.914C1028.12 235.234 1028.34 232.791 1026.32 232.749C1023.92 232.707 1024.18 235.418 1024.4 237.154C1025.06 242.393 1025.71 247.603 1025.4 252.912C1025.07 258.348 1024.65 263.77 1024.26 269.206C1024.18 270.434 1024.26 271.917 1022.69 271.733C1021.43 271.578 1021.76 270.222 1021.64 269.234C1020.42 259.265 1019.96 249.283 1021.32 239.272C1021.44 238.397 1021.59 237.521 1021.56 236.646C1021.52 234.952 1021.84 232.664 1019.68 232.636C1017.45 232.594 1017.66 234.98 1017.8 236.589C1018.29 241.828 1019.25 247.01 1018.84 252.347C1018.41 257.952 1018.07 263.558 1017.69 269.177C1017.62 270.208 1017.8 271.62 1016.6 271.677C1015.36 271.747 1015.56 270.335 1015.44 269.304C1014.27 259.689 1013.68 250.074 1015.03 240.402C1015.25 238.849 1015.39 237.239 1015.37 235.672C1015.35 234.288 1015.2 232.678 1013.54 232.594C1011.84 232.523 1011.56 234.189 1011.66 235.531C1011.87 238.849 1010.43 239.512 1007.94 239.95C999.801 241.376 991.708 241.39 983.615 239.851C980.554 239.272 978.449 240.091 977.009 243.494C976.32 245.118 976.223 246.148 977.651 246.868C980.663 248.379 980.361 251.33 980.506 254.408C980.784 260.183 978.727 265.831 980.07 272.072C970.852 272.072 961.706 272.072 952.56 272.072C951.339 272.072 950.189 272.171 950.238 269.926C950.492 259.096 948.423 248.238 950.564 237.408C950.915 235.615 951.072 232.834 948.871 232.763C946.246 232.678 946.5 235.643 946.911 237.535C949.27 248.21 946.899 258.856 947.02 269.516C947.032 270.815 946.705 271.549 945.641 271.719C942.943 272.142 940.185 273.145 937.572 272.778C933.446 272.199 936.265 268.062 935.793 265.732C934.172 257.642 934.342 249.339 935.442 241.094C935.624 239.696 935.854 238.298 935.854 236.9C935.866 235.036 936.253 232.467 933.761 232.636C931.692 232.777 931.874 235.192 932.067 236.815C932.708 242.04 933.204 247.236 933.204 252.545C933.192 259.209 931.608 265.775 932.418 272.467C932.515 273.244 932.104 273.823 931.378 273.809C930.374 273.794 930.265 272.947 930.18 272.015C929.249 262.569 928.45 253.123 929.478 243.607C929.781 240.811 929.962 238.001 930.047 235.192C930.083 233.949 929.696 232.594 928.402 232.438C926.696 232.241 926.478 233.921 926.406 235.29C926.321 236.858 926.43 238.467 926.672 240.02C928.402 250.921 927.216 261.793 926.176 272.608C925.752 277.07 921.857 274.952 919.522 275.588C917.03 276.265 917.345 274.289 917.115 272.157C916.002 261.793 915.639 251.5 917.103 241.136C917.357 239.329 917.49 236.688 915.01 236.914C913.002 237.098 913.135 239.597 913.449 241.178C915.542 251.881 913.861 262.541 913.534 273.23C913.461 275.686 912.856 276.279 911.042 276.35C902.295 276.632 893.5 276.774 884.814 276.576C881.076 276.491 877.858 276.407 874.471 278.03C871.096 279.64 867.6 278.51 864.164 278.256C862.616 278.143 860.946 277.903 859.978 279.485C859.035 281.01 861.007 281.673 861.273 283.029C861.733 285.344 863.414 284.921 864.963 284.737C880.23 282.986 877.35 280.529 878.657 298.857C878.863 301.779 878.173 304.787 877.822 307.752C877.604 309.602 877.12 311.183 874.991 310.844C873.939 310.675 872.584 310.971 872.669 312.553C872.765 314.36 874.229 314.388 875.451 314.402C876.528 314.402 877.713 312.99 878.681 314.741C873.479 317.381 872.415 322.846 876.407 326.178C878.778 328.155 882.068 323.566 884.077 327.675C883.944 328.691 883.278 328.691 882.71 328.776C881.137 329.002 878.342 327.025 878.391 330.202C878.439 333.28 881.439 330.442 883.326 331.854C880.302 333.506 878.923 335.087 880.738 339.422C882.649 343.968 886.508 339.521 888.504 342.867C887.718 343.15 887.319 343.46 886.944 343.418C885.298 343.277 883.048 342.641 883.302 345.55C883.508 347.851 885.577 347.145 887.028 346.651C887.899 346.355 888.746 346.016 889.654 346.595C890.609 347.216 891.541 347.894 891.504 349.334C891.468 351.155 890.295 350.986 889.218 350.972C887.706 350.944 885.577 350.915 886.073 353.316C886.496 355.391 887.391 358.328 890.379 357.439C891.758 357.029 893.259 355.914 894.105 358.54C892.787 360.206 890.319 357.763 889.363 360.347C888.625 362.338 889.496 364.046 890.053 365.882C890.887 368.649 892.557 368.706 894.408 367.986C895.993 367.379 897.323 367.125 898.255 369.172C897.783 370.654 896.803 369.991 895.98 369.948C893.476 369.807 892.763 370.174 893.464 373.831C894.408 378.787 895.787 380.439 899.936 378.491C900.832 378.067 902.295 378.674 902.15 380.27C902.029 381.766 900.819 381.117 899.961 381.061C896.815 380.835 896.029 381.541 897.493 385.565C898.46 388.247 900.323 390.69 900.239 394.065C900.19 396.465 902.114 396.394 903.662 396.084C904.836 395.844 905.925 394.968 907.183 395.477C908.03 395.83 909.13 396.168 909.106 397.383C909.082 398.893 907.884 398.696 907.038 398.54C903.433 397.891 900.59 397.679 903.638 403.468C904.231 404.598 903.687 406.56 903.674 408.128C904.267 407.916 904.896 407.761 905.308 408.452C907.884 412.759 909.796 418.025 915.772 416.839C916.655 416.67 918.107 418.618 917.079 420.44C916.462 421.541 908.199 420.327 907.655 419.056C906.118 415.498 904.074 412.166 903.771 408.015C902.562 406.659 901.509 405.191 900.928 403.327C895.182 384.986 887.79 367.421 881.754 349.235C877.447 336.259 871.64 324.018 867.878 310.858C864.842 300.212 859.289 290.667 858.127 279.188C857.837 276.265 855.539 274.303 852.671 275.517C850.131 276.59 847.615 276.35 845.062 276.209C841.53 275.997 838.554 276.929 835.287 279.117C831.428 281.701 826.553 281.461 822.27 279.16C818.46 277.098 817.649 278.426 816.657 283.014C815.157 289.891 817.214 296.414 816.802 303.107C816.524 307.611 815.399 309.757 811.129 309.7C793.031 309.46 774.933 309.658 756.835 309.46C745.705 309.347 734.564 309.051 723.434 309.672C720.76 309.827 719.962 307.978 719.841 305.436C719.611 300.339 719.381 295.242 719.369 290.145C719.345 282.591 719.72 275.023 719.526 267.483C719.43 263.699 720.615 260.635 722.079 257.599C723.64 254.366 722.793 252.446 719.853 253.138C708.191 255.863 696.42 253.222 684.746 254.408C684.444 254.437 684.105 254.521 683.851 254.38C681.794 253.293 677.887 254.86 677.826 251.415C677.766 247.871 681.214 250.229 682.98 249.848C694.327 247.349 705.82 249.212 717.252 248.972C720.821 248.902 724.414 248.407 728.067 249.198C730.934 249.819 732.289 251.034 732.58 254.479C733.39 263.812 732.918 273.117 732.35 282.421C732.314 282.944 732.18 283.466 732.156 283.989C732.035 286.262 731.648 288.648 733.342 290.399C734.08 291.161 735.144 291.133 735.858 290.371C737.552 288.578 737.152 286.121 736.862 283.918C735.386 272.848 735.894 261.807 736.983 250.737C737.189 248.662 737.225 246.713 739.608 246.868C742.367 247.066 741.229 249.368 741.35 251.175C742.125 263.12 742.5 275.065 741.217 287.01C741.036 288.719 741.266 290.667 743.08 291.359C744.605 291.938 745.27 290.667 745.814 289.34C746.431 287.843 747.145 287.745 748.657 288.055C753.351 289.044 754.391 287.829 753.654 282.125C752.299 271.747 752.541 261.44 753.823 251.104C754.016 249.523 753.291 246.981 755.589 247.08C757.718 247.165 757.162 249.707 757.367 251.288C758.698 261.101 758.311 270.956 757.416 280.769C757.041 284.892 756.629 288.676 761.65 288.803C762.061 288.818 762.436 289.382 762.86 289.481C765.013 290.018 766.719 293.816 768.787 292.107C771.255 290.074 769.029 286.573 769.041 283.706C769.066 272.975 769.017 262.259 769.029 251.528C769.029 250.102 769.356 248.732 770.275 247.673C771.534 246.219 771.195 244.863 770.106 243.536C769.054 242.251 767.977 242.28 766.453 242.633C756.4 245.005 746.226 245.767 736.052 244.299C734.007 244.002 732.229 244.567 730.329 244.553C711.336 244.412 692.319 244.793 673.35 243.889C665.33 243.508 657.406 246.05 649.337 244.045C647.075 243.48 644.643 239.781 641.921 243.268C639.356 246.544 642.599 249.099 642.671 252.107C643.107 270.053 643.361 287.999 642.308 305.93C642.163 308.331 641.171 308.783 639.441 308.938C630.84 309.743 622.25 308.91 613.661 308.726C612.101 308.698 611.447 308.161 611.266 305.959C609.851 288.62 610.201 271.239 610.431 253.872C610.455 251.683 610.407 249.226 611.81 247.32C612.875 245.88 612.875 244.482 611.714 243.127C610.637 241.856 609.451 242.096 608 242.237C601.152 242.887 594.342 245.866 587.41 242.943C584.736 241.814 582.583 244.299 579.946 244.256C561.231 244.002 542.516 244.045 523.813 244.002C521.999 244.002 520.184 244.2 518.551 242.929C518.067 242.548 517.232 241.983 516.918 242.209C510.772 246.628 504.324 240.91 498.142 243.042C497.731 243.183 497.138 243.494 496.896 243.296C490.872 238.284 492.795 245.033 492.904 247.334C493.811 265.111 493.715 282.873 493.061 300.65C492.892 305.069 491.985 306.523 487.835 306.425C482.246 306.298 476.706 306.156 471.165 305.295C469.508 305.041 467.693 304.914 466.386 306.298C463.41 309.474 462.334 307.413 462.249 304.123C462.08 296.837 460.471 289.382 463.677 282.379C464.548 280.487 464.003 278.934 462.745 277.691C461.547 276.519 460.422 276.901 459.08 277.861C454.483 281.108 447.418 280.431 443.099 276.717C441.974 275.757 440.909 273.724 439.215 275.051C437.739 276.209 438.127 278.242 438.417 279.936C439.651 286.926 439.542 293.858 438.598 300.904C438.09 304.688 436.421 305.987 433.505 306.156C430.421 306.34 430.88 303.601 430.566 301.44C429.852 296.569 428.328 291.5 433.409 288.295C433.82 288.041 434.122 287.039 434.074 286.417C433.469 278.044 433.566 269.657 433.735 261.256C433.759 260.169 433.251 259.223 432.15 259.054C431.292 258.927 430.614 259.35 430.408 260.296C429.671 263.614 427.445 266.551 428.618 270.377C428.921 271.338 429.102 272.51 428.933 273.498C427.324 283.014 428.195 292.7 427.445 302.274C427.348 303.544 427.892 305.507 426.041 305.493C424.529 305.493 424.396 303.742 424.118 302.372C422.388 294.028 423.44 285.528 423.15 277.098C422.86 268.683 423.247 260.24 423.09 251.824C423.029 248.224 423.719 246.981 427.154 246.304C433.251 245.089 439.143 245.315 445.107 246.544C447.103 246.953 448.821 246.883 449.571 244.341C450.394 241.517 448.325 241.136 446.837 240.599C441.78 238.778 437.885 234.895 434.038 230.928C433.094 229.953 432.247 228.951 430.88 229.558C430.13 229.883 429.598 230.546 429.695 231.563C429.852 233.201 430.892 234.062 432.078 234.387C435.393 235.319 438.054 237.691 440.933 239.597C441.683 240.091 442.651 240.486 442.748 241.729C442.82 242.618 442.143 242.859 441.574 243.056C440.546 243.423 439.155 243.847 438.816 242.378C437.848 238.185 435.465 239.357 433.07 239.865C428.497 240.854 424.493 238.566 421.42 235.29C418.347 232.015 415.178 232.692 411.803 232.721C400.661 232.82 401.229 232.749 401.979 245.442C402.729 258.037 402.354 270.759 402.124 283.41C402.028 288.648 402.548 293.887 401.677 299.167C401.048 302.98 399.899 304.984 396.402 304.377C394.019 303.968 391.636 303.544 389.241 303.276C387.789 303.121 385.829 302.711 385.878 305.352C385.926 307.823 387.813 307.921 389.277 307.427C394.213 305.775 399.052 306.467 404 307.385C406.697 307.893 407.556 308.783 407.798 312.242C410.097 344.731 408.089 377.276 408.79 409.78C408.899 415.074 408.536 420.313 408.052 425.565C407.883 427.486 407.738 429.829 410.169 429.872C412.565 429.914 413.085 427.923 412.903 425.495C410.411 391.255 412.565 356.944 411.803 322.676C411.718 319.104 412.432 315.489 413.303 311.366C415.299 316.379 418.408 314.981 421.323 314.36C428.884 312.736 436.348 314.176 443.837 315.165C446.292 315.489 445.966 317.777 445.954 319.612C445.917 325.415 446.075 331.233 445.252 336.993C445.131 337.855 444.962 338.758 445.046 339.606C445.216 341.314 445.192 343.418 447.248 343.559C449.571 343.728 450.019 341.526 449.934 339.606C449.777 335.751 449.063 331.925 448.942 328.07C448.748 322.267 448.954 316.478 449.849 310.717C450.333 307.597 449.547 305.14 446.256 306.255C443.837 307.074 443.607 305.309 443.486 303.573C443.075 297.431 443.438 291.289 443.958 285.161C444.006 284.652 444.091 284.031 444.369 283.678C447.635 279.598 451.736 282.224 455.462 281.927C457.87 281.73 459.467 283.085 459.854 286.093C460.676 292.432 460.18 298.715 459.551 305.013C459.237 308.175 457.229 307.597 455.438 307.667C453.974 307.724 452.087 307.427 452.002 309.955C451.918 312.863 453.962 312.68 455.583 312.595C466.072 312.03 476.56 311.028 487.061 310.844C500.284 310.604 513.518 311.169 526.753 311.126C544.972 311.056 563.251 309.842 581.349 311.988C586.406 312.581 590.882 310.745 595.648 311.338C596.918 311.494 597.983 311.564 598.866 312.694C599.677 313.724 600.838 313.993 601.794 313.527C611.943 308.571 622.529 311.931 632.896 311.296C637.239 311.028 641.607 311.677 645.962 311.621C647.776 311.607 649.458 311.014 650.934 312.976C651.78 314.106 653.22 313.894 654.357 313.371C658.821 311.296 663.249 309.7 667.737 313.357C668.173 313.71 668.935 313.739 669.491 313.597C683.367 310.166 697.412 311.225 711.421 311.211C715.825 311.211 720.373 316.04 724.644 310.759C733.354 312.425 742.1 310.788 750.847 311.169C760.767 311.607 770.723 311.07 780.655 311.126C791.011 311.183 801.366 311.691 811.721 310.985C813.222 310.886 814.576 311.395 815.605 313.117C817.226 315.842 819.524 315.376 821.46 313.71C824.932 310.717 832.13 309.997 835.699 312.976C837.259 314.289 838.154 315.023 839.884 313.287C841.626 311.55 843.961 312.553 846.03 312.68C849.441 312.891 847.699 316.167 848.099 317.989C849.526 324.385 849.018 330.908 848.256 337.361C847.978 339.719 847.784 341.879 849.683 344.533C838.215 344.533 827.279 344.547 816.343 344.533C789.039 344.505 761.735 344.378 734.431 344.434C704.272 344.505 674.1 345.084 643.941 344.816C602.447 344.449 560.952 344.759 519.458 344.9C501.82 344.957 484.17 344.307 466.544 344.872C456.551 345.183 446.68 343.968 436.748 343.799C435.272 343.771 433.759 343.375 432.344 342.853C431.025 342.373 429.743 341.512 428.606 342.98C427.59 344.293 427.735 346.016 428.231 347.498C430.324 353.725 429.404 359.98 428.4 366.207C427.517 371.727 428.183 372.419 432.768 371.53C444.43 369.285 456.249 369.708 468.008 369.525C480.226 369.341 492.444 369.511 504.663 369.497C516.264 369.497 527.866 369.454 539.479 369.44C556.174 369.412 572.869 369.355 589.575 369.384C609.463 369.426 629.34 369.638 649.228 369.61C667.169 369.581 685.121 369.468 703.062 369.087C706.8 369.002 708.07 370.4 708.433 374.622C709.594 388.134 709.123 401.661 709.231 415.202C709.328 427.471 709.522 439.741 708.844 451.997C708.409 459.96 706.667 462.022 700.013 460.596C696.251 459.791 692.876 459.664 689.065 460.582C685.363 461.457 681.286 460.398 677.379 459.975C674.899 459.706 672.237 458.563 672.866 463.575C673.145 465.848 671.439 465.439 670.35 465.467C667.193 465.552 664.035 465.495 660.95 465.495C660.394 463.349 663.188 462.911 661.991 461.132C661.035 459.735 659.535 459.664 658.228 460.144C654.744 461.429 651.478 460.511 648.054 459.565C643.881 458.421 639.949 461.852 635.582 460.991C623.497 458.577 611.278 462.544 599.169 460.186C597.693 459.89 596.132 460.328 596.217 462.361C596.301 464.747 598.104 464.93 599.64 464.465C605.616 462.671 611.556 462.813 617.557 464.422C619.444 464.93 621.73 463.744 622.226 467.543C622.432 469.166 624.404 468.969 625.795 468.757C642.623 466.201 659.535 467.416 676.423 467.246C694.811 467.063 713.212 466.95 731.6 466.837C750 466.724 768.412 466.681 786.813 466.54C799.479 466.441 812.133 466.102 824.787 466.117C828.839 466.117 832.904 466.921 836.957 467.303C838.094 467.401 839.521 467.966 840.042 466.131C840.441 464.719 840.344 463.307 838.88 462.629C837.9 462.177 837.719 461.288 837.622 460.13C836.473 445.742 836.231 431.354 836.558 416.91C836.775 407.083 836.304 397.227 836.4 387.4C836.449 382.487 837.126 377.587 837.489 372.688C837.646 370.428 838.348 369.158 840.574 369.228C842.727 369.299 843.477 370.598 843.768 372.772C844.711 379.762 844.385 386.807 844.421 393.825C844.494 412.109 844.3 430.394 844.336 448.665C844.348 453.621 844.058 458.506 843.538 463.406C843.187 466.724 843.998 467.966 847.155 466.484C852.986 463.759 859.083 462.94 865.277 464.803C867.237 465.396 869.088 465.764 870.939 464.366C871.531 463.914 872.451 463.547 873.092 463.744C879.238 465.622 885.25 462.036 891.371 463.208C892.726 463.462 894.154 463.631 895.097 462.135C895.364 461.711 895.351 460.539 895.073 460.285C893.912 459.198 892.545 459.396 891.202 459.904C890.488 460.172 889.641 460.808 889.049 460.582C882.431 458.04 875.766 463.038 869.148 460.285C866.995 459.396 865.132 461.556 863.063 461.824C858.067 462.488 853.119 461.655 848.207 460.751C845.461 460.243 846.054 457.08 846.006 455.117C845.812 446.561 845.969 438.005 845.969 429.448C845.969 412.081 845.933 394.728 845.945 377.361C845.945 370.287 847.336 368.621 853.313 368.748C856.772 368.833 860.22 369.228 863.68 369.468C864.914 369.553 866.003 369.934 867.031 370.824C869.209 372.702 871.12 375.582 870.939 378.166C870.733 380.962 867.322 380.524 865.253 380.891C860.765 381.668 856.24 381.668 851.764 380.51C850.433 380.171 849.006 379.959 847.953 381.315C847.409 382.021 847.409 383.08 847.966 383.743C849.054 385.042 850.494 384.859 851.8 384.364C858.793 381.71 865.858 384.35 872.886 383.899C874.628 383.786 874.689 385.325 875.112 386.595C882.927 409.765 890.682 432.978 898.654 456.078C900.178 460.511 901.364 465.001 902.307 469.604C902.828 472.117 903.941 473.007 906.227 472.583C908.61 472.146 909.469 470.974 908.671 468.333C908.066 466.342 909.022 466.018 910.401 465.636C917.393 463.744 924.47 463.956 931.547 464.436C934.148 464.62 934.886 466.978 935.636 469.378C936.096 470.847 936.725 472.654 938.382 472.273C940.245 471.849 939.943 469.971 939.531 468.418C939.072 466.681 939.447 465.707 941.032 465.439C944.963 464.789 944.818 461.457 944.237 458.224C943.028 451.404 943.487 444.556 943.56 437.694C943.596 434.517 944.443 433.218 947.613 433.232C953.831 433.26 959.492 435.378 965.142 437.877C966.448 438.456 967.682 439.12 969.001 438.089C969.715 437.524 969.884 436.663 969.485 435.788C968.735 434.122 967.307 433.938 965.952 433.98C958.972 434.249 952.452 431.778 946.367 428.403C943.887 427.02 941.358 423.857 941.007 419.72C939.87 406.589 940.475 393.415 940.439 380.27C940.403 363.566 940.56 346.849 940.402 330.145C940.354 324.3 940.826 318.553 941.322 312.778C941.467 311.013 941.503 308.769 939.386 308.867C937.402 308.952 937.221 311.141 937.511 312.92C940.281 329.778 938.298 346.807 938.794 363.75C939.29 380.736 938.89 397.75 938.854 414.75C938.854 415.216 938.515 415.682 938.152 416.613C935.527 414.072 934.438 410.613 933.18 407.464C926.115 389.772 918.772 372.222 912.409 354.191C908.84 344.096 909.735 332.927 910.219 322.111C910.28 320.714 910.606 319.33 910.739 317.932C910.909 316.195 911.272 314.317 909.687 313.188C909.276 312.906 908.344 312.934 908.03 313.287C906.771 314.656 906.977 316.492 907.304 318.229C908.598 325.133 908.622 331.981 907.001 340.199C902.041 327.717 897.577 316.492 892.738 304.307C896.489 306.015 899.44 304.561 902.465 304.335C904.533 304.18 906.711 303.671 907.449 307.187C907.884 309.234 909.336 309.432 911.09 308.797C920.175 305.563 929.43 304.942 938.83 306.538C940.148 306.764 941.54 306.636 942.882 306.467C954.871 305.013 966.787 304.533 978.897 306.128C987.038 307.201 995.434 305.846 1003.74 305.973C1017.89 306.185 1032.04 305.408 1046.18 305.168C1060.81 304.928 1075.47 304.646 1089.98 306.891C1092.94 307.342 1094.92 305.916 1097.34 305.803C1103.32 305.535 1109.3 303.502 1115.33 307.244C1117.18 308.387 1120.95 307.032 1123.81 306.749C1140.86 305.083 1157.93 306.396 1174.97 306.199C1180.96 306.128 1187.05 305.083 1192.84 307.964C1193.97 308.528 1194.7 307.046 1195.66 306.679C1201.44 304.462 1207.3 303.841 1212.97 306.947C1214.17 307.611 1214.75 307.95 1216.09 307.201C1221.92 303.954 1225.09 305.789 1225.33 313.244C1225.79 327.83 1225.77 342.444 1225.81 357.043C1225.85 372.532 1225.87 388.036 1225.63 403.525C1225.55 407.775 1226.63 412.928 1221.9 415.413C1221.6 415.569 1221.38 416.783 1221.57 417.263C1222.24 418.887 1223.67 419.296 1225.02 419.254C1229.22 419.141 1233.44 418.534 1237.55 420.087C1237.55 420.539 1237.55 420.991 1237.55 421.442C1150.85 421.442 1064.14 421.442 976.55 421.442C980.651 418.802 983.506 418.435 988.381 419.932C990.026 420.44 991.684 420.976 993.269 420.468C1001.29 417.898 1009.43 419.706 1017.51 419.395C1025.27 419.084 1033.03 419.734 1040.76 420.101C1052.98 420.68 1065.14 417.447 1077.43 420.214C1080.53 420.906 1084.56 420.016 1088.25 418.901C1097.22 416.19 1106.51 416.741 1115.59 419.113C1118.94 419.988 1122.29 420.468 1125.63 420.327C1134.43 419.932 1143.13 417.884 1152.08 419.522C1156.73 420.369 1161.75 418.195 1166.46 418.816C1174.66 419.903 1182.96 417.192 1191.03 420.03C1193.7 420.976 1196.1 419.706 1198.58 419.183C1200.93 418.689 1201.07 416.176 1200.76 414.114C1198.25 396.973 1199.97 379.677 1199.58 362.479C1199.37 353.245 1199.16 343.884 1200.56 334.621C1201.48 328.564 1200.27 327.138 1195.04 327.788C1176.23 330.16 1157.38 328.508 1138.56 328.903C1132.2 329.044 1125.93 328.606 1119.63 327.858C1116.32 327.463 1114.7 328.366 1115.63 333.266C1117.99 345.748 1116.98 358.526 1117.03 371.177C1117.09 383.475 1117.33 395.773 1116.74 408.085C1116.53 412.349 1115.38 414.397 1111.59 414.976C1104.34 416.077 1097.14 415.329 1089.92 414.961C1087.1 414.82 1086.6 412.604 1086.24 409.991C1084.79 399.67 1085.55 389.25 1085.54 378.9C1085.52 368.904 1085.29 358.907 1085.49 348.91C1085.57 344.18 1086.18 339.464 1086.59 334.734C1087.16 328.211 1086.23 326.926 1080.81 327.844C1065.67 330.428 1050.47 328.677 1035.3 328.988C1016.18 329.383 997.055 329.171 977.929 329.072C974.167 329.058 970.416 328.352 966.654 328.042C965.178 327.929 963.303 327.604 962.964 329.92C962.662 332.023 964.561 331.854 965.65 332.63C970.114 335.836 974.723 333.675 979.272 333.548C983.336 333.435 987.401 333.252 991.466 333.209C992.567 333.195 994.152 332.743 994.309 334.819C994.442 336.669 993.293 337.205 991.914 337.106C988.272 336.866 987.97 339.747 988.309 342.726C990.559 362.536 988.526 382.43 989.373 402.268C989.482 404.894 988.889 406.179 986.24 406.716C980.808 407.803 975.534 408.212 970.102 406.829C967.561 406.179 966.485 405.021 966.533 401.957C966.751 387.739 967.077 373.507 966.884 359.302C966.799 353.118 966.944 347.047 967.731 340.947C967.985 338.928 968.057 335.793 965.964 335.68C963.751 335.567 963.823 338.575 963.968 340.679C965.674 365.218 965.735 389.772 964.065 414.312C963.896 416.726 964.416 418.802 967.041 420.087C963.218 421.753 960.242 420.694 957.266 419.607C956.407 419.282 955.573 418.844 954.714 418.534C953.395 418.054 952.04 417.743 950.794 418.731C950.226 419.183 950.238 420.002 950.661 420.567C951.629 421.88 953.008 422.332 954.363 422.078C956.879 421.612 959.081 422.657 961.404 423.419C966.654 425.156 972.05 426.201 977.53 425.424C992.41 423.292 1007.33 424.379 1022.24 424.21C1035.46 424.054 1048.69 423.716 1061.91 423.73C1074.68 423.744 1087.47 424.605 1100.22 424.182C1113.95 423.73 1127.66 423.814 1141.38 423.885C1155.56 423.956 1169.72 423.871 1183.9 423.786C1200.44 423.701 1217.12 421.979 1233.49 423.871C1250.1 425.777 1265.34 418.873 1281.41 417.8C1308.65 415.992 1335.83 412.745 1363.03 409.949C1371.16 409.116 1379.26 408.339 1387.43 408.537C1389.28 408.579 1391.05 408.283 1392.53 406.843C1392.53 406.207 1392.53 405.501 1392.53 404.795ZM951.968 223.797C947.431 223.698 942.931 222.978 938.418 222.654C936.979 222.555 935.104 222.964 934.463 220.973C933.906 219.251 935.37 218.107 936.265 216.992C947.395 203.211 958.488 189.402 969.715 175.734C980.941 162.067 992.664 148.921 1003.48 134.844C1010.73 125.412 1019.01 121.431 1029.73 121.868C1044.32 122.461 1058.97 121.501 1073.55 122.391C1082.54 122.941 1091.77 122.447 1100.31 128.024C1125.8 144.643 1151.52 160.796 1177.2 176.991C1200.01 191.365 1222.9 205.541 1245.77 219.815C1246.71 220.394 1247.91 220.973 1247.88 222.315C1247.85 224.08 1246.4 223.642 1245.43 223.769C1243.78 223.995 1242.14 224.136 1240.48 224.249C1222.25 225.421 1204.03 224.009 1185.8 224.193C1163.53 224.404 1141.26 224.362 1119 224.249C1098.53 224.136 1078.05 223.67 1057.58 223.585C1037.39 223.515 1017.21 223.755 997.019 223.811C982.006 223.84 966.981 223.797 951.968 223.797ZM833.836 462.558C832.251 460.356 830.303 460.285 828.235 461.005C824.823 462.177 821.351 461.881 817.903 461.429C814.915 461.033 811.782 459.367 809.012 460.003C802.213 461.556 795.583 461.542 788.857 459.975C787.405 459.636 786.401 460.553 786.014 462.544C785.288 466.314 782.978 464.945 782.494 463.01C781.55 459.212 779.518 459.692 777.219 459.975C760.997 461.965 744.786 461.429 728.563 459.946C726.253 459.735 723.337 458.619 723.894 463.547C724.087 465.269 722.853 465.1 722.091 465.114C719.526 465.156 716.962 465.072 714.397 464.945C713.308 464.888 712.087 464.563 712.22 462.926C712.788 456.176 710.732 449.681 710.913 442.946C711.203 432.23 711.24 421.499 711.203 410.782C711.155 398.682 710.599 386.581 711.784 374.509C712.147 370.767 713.139 369.073 716.829 369.115C743.951 369.426 771.074 368.099 798.184 370.188C799.842 370.316 802.346 371.134 802.358 367.901C802.37 364.654 799.878 365.473 798.209 365.614C784.369 366.772 770.554 367.633 756.654 367.294C739.511 366.884 722.345 367.167 705.191 367.139C695.428 367.125 685.678 367.252 675.903 367.068C664.628 366.856 653.353 367.153 642.066 367.068C620.702 366.913 599.326 367.167 577.95 367.365C555.799 367.576 533.636 367.026 511.486 367.703C501.723 368 491.936 367.054 482.174 367.35C466.628 367.816 451.119 367.929 435.61 366.419C432.284 366.094 431.013 364.555 431.171 360.884C431.231 359.486 431.158 358.06 431.146 356.662C431.025 348.896 431.376 348.402 438.211 348.021C453.103 347.159 467.995 346.383 482.936 346.694C514.873 347.329 546.823 346.778 578.772 346.905C599.846 346.99 620.932 347.145 642.018 346.849C659.656 346.609 677.294 347.004 694.932 346.948C721.026 346.863 747.109 346.566 773.203 346.482C789.764 346.425 806.326 346.764 822.875 346.623C836.763 346.51 850.627 346.736 864.479 347.978C866.281 348.134 867.612 348.699 868.108 351.099C870.455 362.493 867.104 367.562 857.208 367.082C853.482 366.899 849.635 367.873 846.054 365.741C845.582 365.458 844.832 365.571 844.288 365.783C839.001 367.887 833.473 366.475 828.077 367.04C822.089 367.661 815.774 367.816 809.677 366.051C808.044 365.571 805.443 365.543 805.528 368.381C805.588 370.725 807.959 370.598 809.592 370.316C816.04 369.228 822.5 369.087 829.009 369.017C832.614 368.974 833.703 370.217 834.078 374.198C835.723 391.58 834.513 409.017 835.021 426.412C835.336 438.301 834.441 450.218 833.836 462.558ZM576.873 280.741C577.454 289.509 576.183 298.235 576.292 306.975C576.316 309.63 575.01 308.853 574.006 308.853C566.021 308.966 558.025 309.037 550.029 309.037C547.718 309.037 545.31 309.517 543.871 306.142C543.218 304.603 541.137 304.97 539.637 305.154C537.229 305.45 534.834 305.846 532.439 306.227C531.035 306.439 530.201 306.171 530.14 304.095C529.983 298.292 529.717 292.503 529.354 286.714C528.834 278.595 530.467 270.533 529.886 262.471C529.39 255.721 529.015 255.778 534.907 255.778C546.653 255.778 558.4 255.736 570.135 255.75C575.203 255.764 576.788 257.811 576.849 264.391C576.909 269.841 576.873 275.291 576.873 280.741ZM1027.2 335.313C1027.27 334.65 1027.34 333.986 1027.41 333.322C1038.36 333.322 1049.29 333.435 1060.24 333.28C1066.74 333.195 1073.2 333.28 1079.63 334.268C1080.76 334.438 1082.5 334.17 1082.51 336.005C1082.52 337.883 1080.88 337.798 1079.74 337.53C1074.81 336.344 1075.01 339.874 1075.3 343.771C1076.89 364.978 1076.51 386.2 1075.4 407.422C1075.18 411.53 1073.78 412.589 1070.68 412.279C1066.06 411.813 1061.49 410.683 1056.78 412.081C1054.61 412.716 1053.02 411.206 1052.87 408.297C1052.75 405.84 1052.44 403.383 1052.49 400.927C1052.86 381.625 1051.48 362.296 1053.31 343.022C1053.56 340.34 1053.32 338.405 1050.44 336.909C1047.66 335.469 1045.37 335.807 1042.67 336.118C1037.5 336.753 1032.17 338.081 1027.2 335.313ZM999.547 136.397C998.216 138.275 997.612 139.264 996.898 140.125C990.123 148.371 983.3 156.574 976.526 164.82C963.267 180.959 949.826 196.885 936.882 213.363C931.112 220.705 923.563 223.317 916.135 226.296C908.453 229.374 900.251 230.363 892.533 233.483C891.033 234.09 889.387 234.726 887.79 233.54C889.702 228.88 992.894 138.685 999.547 136.397ZM1006.59 417.192C1006.59 417.319 1006.59 417.432 1006.58 417.559C1003.59 417.362 1000.43 417.729 997.72 416.599C996.995 416.303 998.398 411.559 997.817 408.749C995.882 399.388 996.728 389.786 996.801 380.355C996.91 365.67 996.353 350.944 997.684 336.273C997.902 333.901 998.325 333.167 1000.19 333.181C1007.11 333.209 1014.03 333.209 1020.95 333.195C1021.87 333.195 1022.98 333.096 1022.85 334.551C1022.76 335.511 1021.9 336.768 1021.01 336.527C1014.73 334.805 1008.28 338.645 1002.04 335.652C1001.06 335.186 999.91 335.299 999.257 336.598C998.845 337.417 998.833 338.363 999.366 339.069C1000.15 340.128 1001.26 340.128 1002.29 339.704C1005.21 338.476 1008.23 338.405 1011.21 338.815C1013.93 339.182 1018.71 337.812 1015.58 344.562C1015.15 345.465 1015.64 346.976 1015.76 348.19C1016.08 351.325 1016.73 354.445 1016.75 357.58C1016.88 371.939 1016.86 386.313 1016.89 400.673C1016.91 404.146 1016.39 406.603 1012.54 407.026C1009.5 407.351 1006.58 407.591 1003.59 406.956C1002.09 406.645 1000.19 406.25 999.535 408.099C998.966 409.709 998.87 412.067 999.475 413.62C1000.31 415.78 1002.24 415.004 1003.89 414.439C1006.97 413.394 1010.16 413.719 1013.31 413.677C1014.45 413.662 1015.56 414.411 1015.67 415.696C1015.84 417.687 1014.31 417.079 1013.4 417.122C1011.12 417.249 1008.85 417.192 1006.59 417.192ZM1154.37 333.181C1153.71 335.243 1153.09 335.596 1152.28 335.666C1149 335.934 1145.75 337.078 1142.42 335.85C1141.23 335.412 1139.97 335.582 1139.24 337.022C1139.06 337.375 1139.08 338.151 1139.3 338.434C1140.22 339.634 1141.41 339.563 1142.64 339.182C1142.93 339.097 1143.2 338.914 1143.5 338.857C1148.08 337.939 1149.11 339.097 1148.58 344.378C1148.46 345.578 1148.55 346.863 1148.78 348.049C1149.68 352.906 1149.7 357.82 1149.65 362.762C1149.5 376.81 1149.53 390.874 1149.34 404.923C1149.3 407.817 1149.34 411.079 1145.3 410.867C1141.67 410.683 1140.25 408.791 1140.07 404.725C1139.29 387.683 1139.45 370.64 1139.84 353.598C1139.96 348.501 1141.83 343.771 1136.61 339.521C1133.91 337.318 1131.76 336.937 1129.46 337.572C1126.79 338.321 1127.5 341.554 1127.89 343.898C1128.72 348.953 1128.87 354.007 1128.8 359.133C1128.68 367.223 1128.86 375.314 1128.77 383.39C1128.69 391.805 1129.15 400.235 1127.79 408.594C1127.47 410.613 1127.53 412.575 1125.05 412.208C1123.2 411.94 1122.32 411.163 1122.07 408.594C1120.33 390.902 1121.49 373.139 1120.93 355.434C1120.73 349.009 1124.04 342.345 1120.15 336.062C1119.54 335.073 1120.36 334 1121.51 334.17C1127.73 335.045 1133.82 332.955 1140.01 333.111C1144.69 333.28 1149.37 333.181 1154.37 333.181ZM1035.28 411.474C1027.08 410.994 1026.63 410.514 1025.83 401.802C1025.74 400.757 1025.75 399.698 1025.75 398.639C1025.7 382.84 1025.77 367.04 1025.58 351.254C1025.45 340.382 1026.69 338.631 1035.84 338.674C1037.19 338.674 1038.55 338.885 1039.9 338.984C1043.15 339.21 1047.31 338.405 1044.48 344.999C1044.19 345.677 1044.44 346.764 1044.63 347.597C1045.95 353.485 1045.37 359.5 1045.65 365.458C1046.01 373.365 1045.53 381.258 1045.65 389.165C1045.75 395.208 1046.32 401.407 1045.15 407.521C1044.5 410.966 1042.58 411.516 1040.22 411.742C1038.97 411.855 1037.75 411.799 1037.62 409.765C1037.22 403.821 1036.38 397.863 1036.47 391.918C1036.71 376.5 1035.49 361.025 1037.36 345.635C1037.55 344.096 1037.42 341.978 1035.67 341.949C1033.6 341.921 1033.55 344.124 1033.73 345.889C1034.05 349.037 1035.04 352.172 1034.91 355.278C1034.19 372.264 1036.08 389.32 1033.73 406.236C1033.44 408.142 1034.05 409.624 1035.28 411.474ZM693.964 309.418C688.448 308.345 682.085 311.96 678.649 307.921C675.25 303.925 676.931 296.541 677.016 290.583C677.016 290.413 677.04 290.23 677.028 290.06C676.762 287.137 678.08 285.824 680.403 285.641C684.153 285.344 687.916 284.963 691.678 284.907C699.033 284.794 706.376 283.918 713.744 284.864C716.671 285.231 718.075 286.686 718.014 290.215C717.93 294.593 718.099 298.984 718.051 303.361C718.014 307.3 716.587 309.531 712.837 309.432C706.377 309.263 699.916 308.67 693.964 309.418ZM1156.86 367.096C1157.3 360.573 1156.48 352.68 1157.41 344.816C1157.77 341.738 1157.85 338.264 1161.42 338.603C1164.58 338.9 1168.84 338.067 1168.85 344.392C1168.85 346.665 1169.47 348.924 1169.48 351.198C1169.58 362.973 1169.92 374.777 1169.44 386.525C1169.21 392.483 1169.98 398.442 1169.03 404.4C1168.49 407.817 1168.5 411.262 1164.36 411.192C1160.37 411.121 1157.17 410.147 1157.27 404.259C1157.32 401.816 1156.89 399.359 1156.86 396.917C1156.84 387.414 1156.86 377.926 1156.86 367.096ZM995.035 245.993C996.583 246.078 998.543 246.092 1000.49 246.29C1003.49 246.6 1006.47 247.278 1009.47 247.32C1012.19 247.363 1012.67 248.958 1012.75 251.613C1012.89 256.554 1011.33 261.468 1011.54 266.099C1011.8 271.987 1009.95 272.411 1006.04 272.227C1001.7 272.015 996.668 270.801 993.148 272.863C988.889 275.362 986.796 270.137 983.445 271.324C982.949 271.507 982.937 270.236 983.058 269.573C983.53 266.876 982.296 264.405 982.26 261.793C982.042 248.111 980.554 245.047 993.728 246.12C994.031 246.148 994.333 246.064 995.035 245.993ZM687.698 278.863C676.846 279.061 676.846 279.061 676.895 267.511C676.919 260.466 677.73 259.223 683.742 259.11C693.323 258.927 702.904 259.025 712.498 259.11C715.595 259.138 717.7 260.762 717.881 264.701C717.978 266.805 717.797 268.923 718.026 270.999C718.498 275.235 716.853 276.957 713.369 277.466C704.707 278.708 695.997 278.186 687.698 278.863ZM1188.28 412.575C1186.91 410.147 1186.89 408.17 1186.77 406.292C1185.45 385.24 1185.33 364.174 1186.77 343.121C1186.91 341.032 1187.37 338.603 1185.34 337.502C1183.55 336.542 1181.4 336.457 1179.61 337.431C1177.62 338.504 1177.88 340.905 1178.11 343.037C1178.6 347.569 1179.24 352.031 1179.18 356.676C1178.99 370.739 1179.16 384.802 1179.06 398.865C1179.03 402.988 1178.88 407.196 1177.21 411.05C1176.46 409.794 1176.26 408.608 1176.17 407.422C1174.68 386.355 1174.78 365.289 1175.89 344.223C1176.03 341.695 1177.04 338.801 1174.25 337.276C1173.07 336.626 1171.8 335.864 1172.21 334.325C1172.63 332.772 1174.23 332.984 1175.4 333.054C1181.57 333.449 1187.72 333.958 1193.88 334.367C1195.04 334.452 1196.7 333.901 1196.62 335.963C1196.53 337.925 1194.79 337.53 1193.72 337.361C1189.8 336.711 1188.35 338.758 1188.91 343.079C1191.51 363.016 1189.11 383.094 1190.03 403.087C1190.17 405.925 1189.88 408.975 1188.28 412.575ZM820.891 296.301C820.698 282.167 821.496 281.32 832.118 282.591C835.324 282.972 836.763 284.596 836.957 288.098C837.271 293.887 836.993 299.661 836.545 305.436C836.376 307.611 835.348 308.585 833.642 308.726C821.762 309.7 820.432 311.183 820.964 297.346C820.976 297.007 820.916 296.654 820.891 296.301ZM656.027 306.509C654.732 304.194 654.599 302.203 654.648 300.325C655.035 285.259 653.571 270.137 655.458 255.1C655.664 253.505 655.918 251.853 654.575 250.765C653.51 249.904 652.204 249.89 651.163 250.751C649.857 251.81 649.942 253.547 650.293 255.086C651.889 262.019 651.067 269.093 651.2 276.082C651.369 285.344 651.164 294.621 650.97 303.883C650.934 305.493 651.127 308.218 649.361 308.317C647.014 308.458 647.595 305.521 647.389 303.827C646.095 292.997 646.978 282.083 646.663 271.196C646.47 264.391 646.712 257.529 647.438 250.709C647.885 246.487 650.655 247.151 652.797 246.6C653.97 246.304 656.172 246.007 656.039 248.125C655.761 252.615 657.454 256.696 657.37 261.143C657.176 269.912 657.611 278.708 657.273 287.476C657.019 293.562 658.035 299.774 656.027 306.509ZM666.854 276.308C666.902 276.308 666.963 276.308 667.011 276.308C667.011 284.907 667.156 293.519 666.914 302.104C666.854 304.377 667.616 308.43 664.568 308.486C661.846 308.543 662.39 304.646 662.293 302.485C661.543 285.33 660.926 268.147 662.62 251.005C662.765 249.466 662.003 246.925 664.326 246.883C666.951 246.826 666.769 249.692 666.806 251.57C666.939 259.816 666.854 268.062 666.854 276.308ZM525.833 246.953C527.697 249.636 529.995 249.41 532.511 249.029C545.71 247.066 558.956 248.492 572.179 248.52C573.909 248.52 576.97 248.069 576.921 251.09C576.861 254.295 573.764 253.773 571.864 253.815C558.218 254.14 544.56 254.225 530.902 253.956C526.414 253.872 525.507 251.627 525.833 246.953ZM1023.1 408.791C1020.27 401.915 1020.74 348.628 1023.77 342.189C1024.32 365.233 1024.88 387.019 1023.1 408.791ZM522.095 281.758C522.277 289.495 522.083 296.343 521.454 303.163C521.345 304.307 521.515 306.015 519.978 305.775C518.829 305.592 519.313 304.109 519.18 303.135C517.281 289.199 518.527 275.136 517.946 261.143C517.849 258.955 518.369 257.176 520.595 257.246C522.87 257.317 522.87 259.52 522.482 261.115C520.753 268.288 522.688 275.489 522.095 281.758ZM672.491 307.187C670.459 287.646 670.653 268.09 672.237 248.535C674.875 268.09 674.028 287.646 672.491 307.187ZM506.792 303.375C505.34 300.777 505.135 298.249 505.123 295.92C505.05 285.048 504.518 274.176 505.219 263.304C505.425 260.183 506.913 257.035 503.586 254.366C502.364 253.378 503.223 250.059 504.143 247.998C504.336 247.56 505.304 247.109 505.643 247.306C507.349 248.28 506.72 250.384 506.949 251.994C508.8 264.73 507.506 277.564 507.687 290.357C507.76 294.423 508.861 298.758 506.792 303.375ZM420.476 245.372C421.541 263.388 422.098 281.391 420.537 299.393C419.243 281.377 419.255 263.374 420.476 245.372ZM498.796 250.864C499.582 267.667 500.32 284.483 498.288 301.243C497.622 284.441 496.594 267.624 498.796 250.864ZM924.119 462.163C921.143 462.064 918.095 462.7 915.216 461.429C913.969 460.878 913.002 459.904 914.514 458.506C916.57 456.614 929.14 456.007 931.281 457.574C932.079 458.153 932.696 458.887 932.575 460.102C932.418 461.584 931.583 462.163 930.398 462.163C928.305 462.177 926.212 462.163 924.119 462.163ZM1079.91 404.612C1079.91 387.188 1079.91 369.779 1079.91 352.355C1080.3 352.355 1080.69 352.355 1081.08 352.355C1080.94 369.821 1081.74 387.287 1079.91 404.612ZM853.034 322.973C856.047 329.524 857.765 335.511 858.394 341.921C858.611 344.053 856.942 343.856 855.829 343.884C854.716 343.912 852.756 344.392 852.853 342.599C853.204 336.443 850.506 330.273 853.034 322.973ZM581.53 261.567C581.942 261.567 582.353 261.553 582.776 261.553C583.272 274.642 583.684 287.716 582.704 300.805C582.317 300.805 581.93 300.805 581.53 300.805C581.53 287.716 581.53 274.642 581.53 261.567ZM1048.41 353.118C1048.41 367.718 1048.41 382.331 1048.41 396.931C1047.7 382.247 1046.72 367.576 1048.41 353.118ZM910.764 230.928C901.521 236.307 891.226 237.211 881.403 240.091C890.73 235.093 900.783 233.158 910.764 230.928ZM1091.22 298.842C1088.26 292.164 1088.79 286.474 1089.35 280.812C1089.43 279.951 1090.16 279.188 1090.99 279.4C1091.48 279.527 1092.26 280.261 1092.24 280.671C1091.89 286.234 1093.25 291.966 1091.22 298.842ZM1153.9 407.337C1153.79 397.75 1152.5 388.12 1154.53 378.604C1155.31 388.219 1155.53 397.806 1153.9 407.337ZM747.399 256.3C748.984 264.377 748.355 272.411 747.024 280.445C745.972 272.382 745.33 264.32 747.399 256.3ZM404.229 245.908C404.532 245.922 404.822 245.937 405.125 245.937C405.125 261.539 405.125 277.141 405.125 292.757C404.822 292.757 404.532 292.757 404.229 292.757C404.229 277.141 404.229 261.525 404.229 245.908ZM970.912 411.29C976.465 409.342 981.969 409.441 987.365 412.392C981.836 413.677 976.368 413.663 970.912 411.29ZM1043.69 415.992C1043.17 416.148 1042.64 416.303 1042.12 416.444C1037.62 417.588 1032.89 414.114 1028.46 417.362C1028.17 417.574 1027.07 417.079 1026.97 416.698C1026.66 415.47 1027.47 414.566 1028.35 414.425C1033.47 413.62 1038.63 412.491 1043.69 415.992ZM1047.27 295.595C1045.59 290.879 1046.01 286.036 1046.16 281.235C1046.18 280.318 1046.45 278.948 1047.63 279.16C1048.43 279.301 1048.68 280.374 1048.66 281.264C1048.63 286.093 1049.27 290.978 1047.27 295.595ZM844.167 308.373C841.469 308.571 839.63 308.543 839.34 305.662C839.207 304.391 840.066 303.403 840.937 303.813C843.538 305.069 846.127 304.603 848.764 304.349C849.514 304.278 850.337 304.744 850.421 305.733C850.506 306.679 849.829 307.342 849.091 307.498C847.191 307.907 845.268 308.19 844.167 308.373ZM908.235 437.129C908.465 442.749 909.808 448.439 907.413 453.861C906.965 448.241 905.707 442.593 908.235 437.129ZM1154.2 348.388C1155.69 354.516 1154.78 360.545 1154.49 366.588C1153.06 360.502 1153.21 354.417 1154.2 348.388ZM1136.85 415.823C1144.81 413.112 1146.5 413.225 1149.12 416.67C1145.12 416.501 1141.35 418.237 1136.85 415.823ZM939.096 436.861C940.197 441.605 939.967 446.406 939.423 451.22C937.221 446.547 937.451 441.746 939.096 436.861ZM512.526 278.002C512.744 278.016 512.962 278.044 513.192 278.059C513.192 284.497 513.192 290.921 513.192 297.36C512.974 297.36 512.756 297.36 512.526 297.36C512.526 290.893 512.526 284.455 512.526 278.002ZM678.431 465.058C678.431 464.549 678.443 464.041 678.443 463.533C682.714 462.982 686.984 462.234 691.17 465.058C686.912 465.058 682.677 465.058 678.431 465.058ZM595.624 252.516C596.326 251.062 594.971 247.179 596.967 247.179C599.35 247.165 598.624 251.034 599.096 253.236C599.35 254.451 599.689 256.159 597.62 256.018C595.878 255.891 595.213 254.959 595.624 252.516ZM1157.12 334.014C1160.99 333.548 1163.61 333.195 1166.25 332.941C1166.96 332.871 1167.84 332.955 1168.07 334.014C1168.3 335.073 1167.57 335.737 1166.9 335.92C1163.9 336.782 1160.9 337.163 1157.12 334.014ZM1158.3 415.555C1159.26 413.931 1160.75 413.507 1162.19 413.677C1164.17 413.888 1167.7 413.14 1167.67 415.427C1167.62 418.195 1164.4 416.868 1162.51 416.783C1161.15 416.712 1159.52 417.602 1158.3 415.555ZM1066.29 247.123C1066.83 251.641 1067.27 256.216 1066.14 260.734C1065.07 256.23 1065.42 251.697 1066.29 247.123ZM1196.89 379.056C1197.16 378.943 1197.41 378.844 1197.68 378.731C1197.68 386.793 1197.68 394.841 1197.68 402.903C1197.41 402.903 1197.16 402.903 1196.89 402.903C1196.89 394.954 1196.89 387.005 1196.89 379.056ZM977.203 416.246C980.252 415.795 983.349 414.665 987.413 416.698C983.24 417.729 980.203 417.687 977.203 416.246ZM641.752 464.648C638.993 465.142 636.199 466.159 632.558 464.041C636.368 462.798 639.102 462.375 641.752 464.648ZM512.925 274.769C511.667 271.168 512.466 267.483 512.696 263.784C514.075 267.356 513.204 271.055 512.925 274.769ZM923.768 227.539C923.805 228.033 923.853 228.513 923.889 229.007C921.555 229.36 919.208 229.713 916.873 230.08C918.821 227.016 921.276 227.143 923.768 227.539Z" fill="white"/>
<path d="M-36.7133 349.517C-34.9349 349.489 -34.1002 347.851 -33.2655 346.496C-24.8578 333.026 -16.7888 319.245 -8.09072 306.043C3.82531 287.97 14.9672 269.234 26.6413 250.949C37.2387 234.33 47.5941 217.486 58.0463 200.74C61.9296 194.513 65.8129 188.258 69.6841 182.017C70.3858 180.888 71.1237 179.25 72.3576 179.561C73.9424 179.956 73.894 182.017 73.9182 183.514C74.0634 191.774 74.1238 200.048 74.1601 208.308C74.2206 222.173 74.2691 236.053 74.2449 249.918C74.2086 273.823 73.9181 297.713 74.1359 321.617C74.2085 329.75 73.5431 337.784 73.2528 345.86C73.1802 347.865 72.769 350.972 74.9828 351.085C77.3055 351.198 77.1362 348.077 76.9426 346.086C74.9949 325.895 76.0111 305.634 75.7692 285.415C75.5514 266.41 75.7812 247.405 75.8538 228.386C75.8538 227.256 75.4908 225.873 77.1845 224.842C77.8619 229.148 80.6081 229.205 83.5236 229.12C86.7294 229.035 89.7417 230.998 92.6451 231.944C98.4277 233.822 104.404 233.765 110.078 235.785C112.993 236.815 114.82 238.608 114.88 242.393C114.989 249.777 115.473 257.176 115.231 264.546C114.953 273.159 115.267 281.73 115.279 290.328C115.279 292.602 114.917 294.875 114.662 297.134C113.925 303.77 113.912 303.77 108.36 301.723C106.001 300.862 103.097 303.459 104.15 305.817C108.057 314.685 106.291 324.145 106.436 333.28C106.836 357.34 106.569 381.428 106.473 405.501C106.461 409.356 105.638 413.196 105.65 417.051C105.662 422.176 103.255 423.348 99.5527 423.038C95.8025 422.713 92.0645 421.654 88.3143 422.897L88.4473 422.77C87.9876 426.483 89.7417 427.485 92.4636 427.161C112.63 424.746 132.881 425.749 153.084 425.368C177.146 424.93 201.232 425.48 225.306 425.382C266.631 425.226 307.956 424.69 349.281 424.76C363.738 424.789 378.243 423.843 392.687 425.692C394.417 425.918 397.187 426.991 397.018 423.207C396.873 419.974 394.429 421.103 392.748 421.23C390.594 421.4 389.167 422.417 388.393 418.011C385.441 401.364 387.038 384.661 386.868 368C386.759 356.86 385.489 345.606 388.417 334.551C389.481 330.527 386.856 328.493 383.13 329.468C375.545 331.444 367.827 331.021 360.133 331.021C330.857 331.021 301.593 331.007 272.317 330.894C268.579 330.88 264.865 330.738 261.212 329.044C258.72 327.9 256.687 330.174 257.377 332.927C260.631 345.917 259.022 359.161 259.3 372.278C259.566 385.282 259.264 398.3 258.986 411.319C258.828 418.788 258.441 419.211 251.981 419.917C244.928 420.694 237.863 420.906 230.762 419.903C227.919 419.508 227 418.152 226.504 415.088C224.822 404.767 225.778 394.361 225.5 383.997C225.246 374.523 225.633 365.021 225.464 355.532C225.391 351.424 226.226 347.484 226.347 343.446C226.395 341.865 226.613 340.283 226.492 338.716C226.383 337.375 226.189 335.539 224.701 335.539C223.201 335.525 223.092 337.403 222.85 338.702C222.633 339.888 222.5 341.201 222.717 342.373C224.701 353.541 223.734 364.837 223.867 376.076C224.012 388.007 224.278 399.952 223.576 411.883C223.383 415.131 222.5 416.133 219.524 416.486C215.665 416.952 211.697 415.922 207.922 417.559C206.18 418.322 205.853 416.924 205.624 415.427C205.333 413.564 205.829 411.869 207.559 412.194C211.285 412.872 214.999 410.966 218.701 412.476C219.887 412.956 221.471 412.886 221.592 411.107C221.75 408.777 219.995 409.017 218.653 409.144C206.204 410.33 207.317 408.156 207.257 396.761C207.196 385.353 206.301 373.916 207.946 362.536C208.104 361.448 207.946 360.432 207.196 359.641C206.507 358.921 204.813 359.048 205.37 357.241C205.914 355.476 207.414 355.97 208.527 356.012C211.382 356.154 214.249 356.408 217.08 356.803C218.592 357.015 220.128 357.594 221.266 355.956C221.544 355.546 221.592 354.473 221.326 354.064C220.104 352.186 218.362 352.595 216.765 353.132C214.104 354.022 211.382 353.993 208.672 353.951C207.148 353.923 204.704 354.459 204.995 351.565C205.285 348.656 203.579 344.674 207.789 343.178C211.055 342.02 214.068 343.107 217.152 343.601C218.677 343.841 220.153 344.35 221.399 342.909C221.629 342.641 221.737 341.78 221.568 341.54C220.334 339.817 218.653 339.902 216.983 340.326C213.596 341.201 210.402 339.944 207.16 339.21C205.999 338.956 205.079 338.434 205.224 336.866C205.37 335.228 206.47 335.059 207.595 335.186C210.148 335.468 212.785 335.426 215.229 336.203C219.003 337.389 221.883 334.593 225.197 333.788C226.177 333.548 226.601 332.376 226.177 331.247C225.476 329.397 224.036 329.581 222.657 329.849C216.366 331.035 210.027 330.964 203.676 330.95C183.909 330.894 164.141 330.88 144.362 330.88C142.342 330.88 140.467 330.513 138.773 329.157C137.37 328.042 136.196 328.804 135.119 329.92C134.079 330.993 133.789 332.306 134.478 333.704C136.728 338.208 136.535 343.305 136.523 348.12C136.474 372.193 137.503 396.295 135.773 420.355C135.628 422.431 135.095 422.798 133.438 423.137C129.518 423.941 125.587 423.01 121.691 423.603C121.268 423.673 120.481 423.617 120.409 423.391C118.582 417.545 115.279 419.903 111.977 421.061C109.449 421.951 109.691 419.578 109.364 417.616C106.787 402.31 108.42 386.864 108.118 371.501C107.743 352.934 108.021 334.339 107.912 315.758C107.864 308.599 108.88 307.822 115.05 306.975C119.998 306.298 124.873 305.775 129.845 305.959C132.41 306.057 135.011 305.592 137.394 307.003C141.846 309.644 145.923 305.916 150.338 306.029C166.053 306.453 181.828 305.041 197.506 306.072C206.289 306.65 215.205 306.608 223.855 306.566C231.839 306.523 239.932 308.783 248.013 306.538C263.679 302.189 279.612 302.923 295.532 304.038C300.335 304.377 305.174 304.222 309.989 304.053C311.658 303.996 313.255 303.332 314.404 305.436C314.828 306.227 315.783 306.665 316.4 306.17C323.538 300.65 331.377 304.42 338.781 304.25C352.753 303.94 366.774 302.203 380.771 304.49C384.739 305.14 388.586 299.774 387.763 294.903C386.675 288.408 386.421 281.955 387.739 275.531C388.392 272.368 386.457 271.126 385.404 268.965C384.086 266.24 389.59 267.695 388.768 263.741C386.892 254.705 387.642 245.598 388.634 236.476C389.13 231.986 385.417 232.777 383.445 232.608C380.735 232.382 381.122 235.46 381.485 237.338C383.251 246.657 382.162 255.891 381.376 265.167C381.146 267.949 380.13 268.824 378.073 269.093C371.928 269.855 365.758 268.387 359.588 269.488C357.629 269.841 356.758 268.344 356.443 265.591C355.403 256.103 354.955 246.713 356.383 237.239C356.77 234.669 356.721 232.212 353.443 232.241C350.322 232.269 349.91 234.613 350.273 237.225C351.568 246.53 351.144 255.764 350.334 265.097C350.007 268.881 348.785 270.307 345.942 269.954C340.716 269.276 335.526 268.189 330.24 269.488C328.909 269.813 328.268 268.881 328.195 266.961C327.845 257.006 326.26 247.066 328.256 237.084C328.885 233.921 327.905 231.958 324.663 232.368C323.61 232.509 321.965 232.763 321.88 230.659C321.772 228.089 323.647 228.626 324.832 228.626C336.579 228.57 348.326 228.753 360.06 228.584C374.831 228.358 389.59 229.36 404.361 228.57C410.652 228.231 417.003 229.445 423.318 229.939C425.822 230.137 428.254 230.871 429.681 226.974C430.48 224.785 432.476 224.221 434.302 226.706C436.165 229.233 438.295 231.492 440.412 233.751C441.222 234.613 442.408 234.881 443.351 234.034C444.38 233.116 443.993 231.93 443.545 230.702C440.291 221.623 439.964 210.115 443.013 200.02C442.117 205.583 444.888 205.244 447.767 205.075C459.151 204.397 470.547 203.677 481.942 203.267C485.027 203.154 488.112 203.437 491.185 205.103C494.33 206.811 498.141 205.498 501.383 204.948C509.621 203.55 517.69 203.267 525.844 205.216C526.86 205.456 527.985 205.908 528.929 205.654C539.95 202.703 550.874 204.298 561.967 205.357C567.351 205.879 573.133 204.072 578.759 204.326C584.723 204.595 590.747 203.267 596.651 205.894C599.736 207.263 602.675 204.03 606.232 204.51C612.329 205.343 618.608 204.058 624.741 204.708C635.653 205.865 646.565 203.126 657.38 204.679C669.853 206.472 682.241 203.719 694.665 204.736C713.9 206.303 733.159 204.044 752.394 205.018C769.669 205.894 786.969 204.496 804.244 205.908C807.667 206.19 810.873 207.743 814.502 207.08C817.37 206.557 817.551 210.045 817.575 212.417C817.648 222.258 817.466 232.113 817.491 241.955C817.503 246.53 817.503 251.062 816.692 255.58C816.402 257.232 816.244 259.632 818.458 259.491C820.563 259.35 820.212 257.049 820.019 255.326C818.458 241.15 819.208 226.903 819.245 212.685C819.245 210.553 819.499 208.576 820.382 206.614C821.942 203.168 820.684 200.754 817.321 201.192C815.289 201.46 814.89 201.093 815.204 198.947C815.543 196.645 813.498 195.728 813.002 194.061C811.829 190.122 812.119 186.197 814.26 182.554C816.003 179.589 815.18 177.951 812.059 178.05C808.43 178.163 804.691 178.996 801.207 178.248C793.332 176.539 785.505 177.358 777.641 177.542C775.488 177.584 774.677 176.864 774.315 174.012C773.141 164.693 773.032 155.473 774.351 146.168C774.653 144.022 774.69 142.582 777.085 142.539C786.594 142.37 796.09 142.045 805.562 143.203C806.385 143.302 807.534 142.878 807.873 144.234C808.175 145.462 807.292 146.267 806.579 146.775C798.667 152.522 791.614 160.866 780.908 158.254C779.069 157.802 777.073 158.198 777.121 161.262C777.17 164.707 779.311 164.665 781.319 164.17C783.605 163.591 785.722 163.38 787.888 164.777C789.739 165.978 791.445 165.159 792.751 163.436C799.429 154.583 809.034 150.94 817.212 144.742C817.781 144.304 818.7 144.205 819.402 144.347C824.664 145.363 824.301 139.179 826.588 136.482C827.471 135.437 826.043 133.757 824.555 133.164C814.575 129.196 806.046 122.193 797.445 115.387C796.03 114.272 794.687 113.241 792.884 113.566C794.239 116.051 796.489 117.209 798.497 118.691C803.336 122.278 808.248 125.723 813.063 129.366C814.49 130.453 817.019 131.201 816.45 133.672C815.93 135.903 813.571 134.844 811.998 134.943C806.591 135.296 801.183 135.366 795.751 135.254C780.242 134.943 764.721 135.141 749.2 134.985C733.425 134.816 717.65 134.336 701.875 134.195C680.172 134.011 658.481 134.293 636.778 133.842C622.043 133.545 607.26 134.773 592.574 132.175C590.977 131.893 588.824 131.822 589.066 134.745C589.259 137.146 591.122 136.764 592.647 136.637C597.014 136.27 601.369 135.635 605.736 135.635C620.955 135.635 636.185 135.917 651.404 135.988C674.909 136.087 698.415 136.016 721.92 136.171C747.107 136.341 772.294 136.595 797.481 137.047C804.462 137.174 811.563 135.649 819.765 138.741C806.191 140.238 793.937 140.803 781.646 140.619C760.523 140.294 739.401 140.111 718.291 139.927C700.834 139.786 683.366 139.758 665.909 139.645C644.992 139.518 624.076 139.334 603.159 139.207C585.811 139.108 568.464 139.038 551.116 138.995C530.562 138.939 510.009 138.063 489.443 138.43C475.724 138.67 461.994 138.529 448.287 137.866C443.351 137.626 438.137 138.219 432.923 136.044C434.52 134.152 436.129 134.265 437.545 134.251C445.505 134.166 453.465 134.237 461.425 134.265C467.002 134.293 472.567 134.491 478.083 135.522C479.462 135.776 481.096 135.564 481.047 133.376C480.999 131.187 479.341 131.286 477.962 131.342C477.212 131.371 476.462 131.582 475.724 131.71C463.349 133.827 450.997 131.822 437.883 132.161C438.912 130.679 439.299 129.93 439.831 129.38C451.287 117.308 465.187 109.358 477.684 99.0511C478.289 98.5569 479.559 97.0461 480.164 99.2487C480.842 101.72 482.511 101.084 483.914 100.929C497.887 99.277 511.884 99.4888 525.905 99.8418C542.611 100.265 559.342 99.8841 576.061 100.025C587.626 100.124 599.191 100.562 610.769 100.717C621.463 100.858 632.157 100.745 642.863 100.872C663.211 101.127 683.571 101.96 703.907 101.649C718.654 101.423 733.377 102.327 748.099 101.903C755.672 101.691 763.209 103.414 770.673 103.033C776.226 102.75 780.085 105.419 784.38 108.243C787.223 110.121 789.461 113.354 792.993 113.721C791.445 111.307 789.436 109.641 787.223 108.045C773.552 98.1898 759.991 88.1225 746.369 78.1542C738.845 72.6475 731.223 67.3104 723.771 61.6908C720.239 59.0222 716.96 55.8877 713.597 52.9085C711.686 51.2141 710.258 50.607 707.609 52.2166C703.726 54.5746 699.02 53.7274 694.677 53.6991C651.271 53.3603 607.877 53.0496 564.471 52.2448C555.531 52.0754 546.374 53.9674 537.567 50.2116C536.49 49.7598 535.002 50.014 534.179 51.1435C526.776 61.2531 516.565 66.8868 507.347 74.0454C486.757 90.0146 465.962 105.603 445.311 121.487C441.21 124.636 435.911 125.638 432.911 130.834C432.669 131.244 431.847 131.357 431.302 131.342C428.399 131.258 424.395 129.761 428.387 136.016C429.524 137.795 427.673 139.8 425.471 139.969C421.249 140.294 417.027 141.043 412.817 140.887C393.268 140.181 373.682 141.805 354.181 139.362C354.036 139.348 353.854 139.263 353.733 139.32C345.7 143.104 342.12 135.169 337.147 130.806C331.583 125.906 326.889 119.948 322.026 114.201C321.046 113.044 319.63 111.759 318.433 112.479C313.194 115.656 307.509 115.105 302.041 115.034C283.967 114.794 265.833 116.263 247.844 113.961C241.456 113.142 237.222 114.964 232.117 119.044C222.584 126.683 212.168 132.825 202.115 139.588C188.699 148.625 175.295 157.704 161.855 166.684C155.976 170.609 150.024 174.393 144.072 178.177C143.442 178.572 142.608 178.812 141.918 178.728C131.901 177.485 121.885 176.271 111.892 174.845C101.9 173.419 91.9434 171.668 82.0477 169.324C79.2532 168.66 76.8699 164.382 73.8335 167.079C71.4744 169.169 72.2971 173.249 70.6881 176.172C62.9699 190.277 54.03 203.324 45.6948 216.893C34.916 234.443 23.9918 251.867 13.0799 269.304C2.24054 286.629 -8.82857 303.77 -19.4865 321.25C-25.2328 330.668 -31.7775 339.436 -36.7496 349.503C-36.6044 349.644 -36.7133 349.517 -36.7133 349.517ZM102.13 221.665C98.6454 221.623 95.1977 221.03 91.7499 220.592C90.9031 220.479 89.7417 220.931 89.3425 219.702C88.8707 218.22 90.0805 217.387 90.8668 216.822C95.0767 213.744 99.1657 210.497 103.521 207.658C123.191 194.824 142.692 181.65 162.278 168.618C182.517 155.148 203.071 142.257 222.911 128.024C234.803 119.496 247.178 116.347 260.776 116.856C274.18 117.35 287.596 117.505 301.012 117.364C312.348 117.251 322.945 118.324 331.982 128.123C339.652 136.44 347.297 144.897 355.487 152.493C368.964 164.975 381.86 178.248 394.756 191.506C398.07 194.909 400.587 198.777 404.785 201.502C410.579 205.272 415.237 211.457 420.294 216.723C421.237 217.712 422.786 218.926 422.217 220.55C421.624 222.216 419.81 221.566 418.515 221.679C404.228 222.908 389.929 222.385 375.618 222.315C355.608 222.23 335.599 222.018 315.59 222.428C299.355 222.752 283.072 221.072 266.849 221.665C240.658 222.625 214.479 220.804 188.288 221.693C177.34 222.075 166.331 221.566 155.334 221.651C137.599 221.764 119.864 221.665 102.13 221.665ZM770.528 99.277C764.455 99.6159 759.519 100.152 754.584 100.11C724.92 99.8559 695.257 99.4323 665.582 99.164C638.75 98.924 611.918 98.811 585.086 98.6275C561.858 98.458 538.631 98.2463 515.404 98.1051C505.605 98.0486 495.806 98.2745 486.056 96.8908C485.112 96.7496 483.684 97.1308 483.576 95.4224C483.539 94.8293 484.35 93.9822 484.93 93.5303C496.883 84.4091 508.908 75.415 520.799 66.209C529.546 59.4458 538.353 53.1202 549.458 53.798C554.261 54.0945 559.088 54.2498 563.903 54.2922C583.924 54.4475 603.933 54.4616 623.955 54.6452C647.424 54.8569 670.893 55.0687 694.35 55.5629C702.431 55.7323 710.585 55.5912 718.134 60.3353C730.219 67.9316 741.518 77.0246 753.168 85.4398C758.733 89.4215 764.83 92.6973 770.528 99.277ZM144.652 300.777C143.455 297.741 142.995 294.508 143.08 291.204C143.576 272.764 141.858 254.267 144.011 235.855C144.326 233.144 144.059 230.433 140.684 230.419C137.599 230.405 135.398 231.619 136.111 235.615C138.664 249.932 136.765 264.405 137.321 278.793C137.563 285.175 137.745 291.74 136.874 298.235C136.317 302.386 135.265 304.73 131.248 304.264C128.563 303.954 125.804 304.067 123.107 304.293C119.369 304.603 117.796 302.937 117.372 298.419C116.163 285.245 117.058 272.058 116.683 258.87C116.465 250.963 116.78 243.056 117.626 235.163C117.941 232.241 117.203 229.304 113.864 230.97C110.368 232.721 107.307 232.65 103.956 230.546C102.323 229.516 100.218 229.388 98.1978 230.08C97.1816 230.433 95.8388 230.687 95.3065 228.824C96.9639 227.609 98.6818 228.075 100.291 228.075C113.368 227.977 126.458 227.906 139.535 227.934C168.339 227.976 197.131 228.061 225.935 228.174C238.747 228.231 251.57 228.414 264.381 228.57C265.542 228.584 267.587 228.033 267.672 229.36C268.131 236.194 271.942 233.172 274.591 232.636C278.62 231.831 280.289 232.862 281.003 238.185C282.285 247.786 281.185 257.119 280.604 266.579C280.531 267.836 280.156 268.796 279.14 268.782C275.124 268.74 271.18 270.956 267.079 269.036C265.772 268.429 265.288 268.005 265.107 266.255C264.079 256.794 263.474 247.377 264.962 237.903C265.252 236.039 265.7 233.808 263.825 232.749C262.482 231.986 260.691 231.944 259.433 232.89C257.812 234.104 258.163 236.335 258.514 238.213C259.953 246.092 258.986 253.971 258.853 261.877C258.756 267.681 256.397 269.446 251.957 268.867C250.312 268.655 248.545 267.878 248.074 270.801C247.856 272.114 248.074 273.893 246.174 273.554C244.384 273.244 244.868 271.521 244.832 270.222C244.614 259.689 244.082 249.156 245.485 238.665C245.642 237.479 245.582 236.194 245.4 235.008C245.243 233.991 244.783 232.904 243.67 232.975C242.594 233.045 242.182 234.118 242.013 235.163C241.856 236.18 241.856 237.267 241.952 238.298C243.67 255.834 242.956 273.427 242.751 291.006C242.581 305.521 242.17 302.556 232.94 303.954C228.319 304.66 226.964 302.189 226.31 297.953C225.282 291.317 225.996 284.596 225.802 277.917C225.609 271.422 224.363 264.179 226.347 258.602C229.044 251.048 226.322 243.692 228.077 236.462C228.56 234.443 227.302 232.692 224.786 232.777C222.282 232.862 221.592 234.288 221.604 236.702C221.604 237.931 221.858 239.145 221.943 240.373C223.177 258.997 222.548 277.649 222.403 296.287C222.367 301.342 220.177 302.612 216.294 301.963C212.979 301.412 209.483 299.492 206.349 303.643C208.237 300.819 208.188 298.165 207.958 295.242C206.543 277.55 206.603 259.816 207.499 242.096C207.995 232.128 208.273 232.142 199.647 232.523C199.345 232.537 199.03 232.636 198.74 232.579C195.413 231.944 194.579 234.217 195.208 237.253C197.434 247.942 195.462 258.574 195.317 269.234C195.292 270.872 195.038 271.549 193.671 271.479C192.474 271.422 192.389 270.646 192.341 269.375C191.893 258.701 190.369 248.054 192.377 237.366C192.716 235.587 192.994 232.819 190.744 232.707C188.046 232.565 188.385 235.559 188.76 237.437C190.937 248.125 189.014 258.771 188.844 269.431C188.82 270.787 188.627 271.436 187.441 271.366C186.425 271.309 186.377 270.575 186.352 269.573C186.074 259.068 184.501 248.577 186.376 238.058C186.897 235.149 186.909 232.354 183.098 232.354C179.154 232.354 179.517 235.53 179.892 238.185C180.812 244.666 180.86 251.161 180.654 257.67C180.207 272.086 179.868 272.354 167.529 271.309C166.041 271.182 165.266 271.225 165.121 268.81C164.504 258.305 163.222 247.843 165.206 237.338C165.895 233.681 164.347 232.339 161.238 232.226C158.068 232.114 156.967 234.006 157.427 237.069C159.496 250.907 158.008 264.828 158.443 278.708C158.649 285.189 158.335 291.712 157.935 298.193C157.645 302.937 154.27 301.878 151.669 302.005C150.132 302.076 149.056 302.203 148.898 299.351C147.713 278.68 147.084 258.023 148.802 237.338C148.935 235.742 149.068 234.062 147.725 233.06C147.338 232.763 146.491 232.834 146.08 233.144C144.507 234.302 144.785 236.053 145.076 237.86C145.584 240.966 146.431 244.115 146.346 247.221C145.886 265.054 147.338 282.93 144.652 300.777ZM475.361 160.753C475.289 161.798 475.18 162.857 475.131 163.902C474.527 176.497 474.527 176.497 463.893 176.426C463.143 176.426 462.381 176.398 461.631 176.355C448.771 175.621 435.887 175.904 423.016 175.24C410.519 174.591 397.78 173.927 385.175 175.424C384.267 175.537 383.82 174.915 383.251 174.365C376.525 167.87 369.629 161.586 363.145 154.781C361.306 152.861 357.435 150.686 358.657 147.848C359.77 145.25 363.847 146.013 366.653 146.14C387.11 147.128 407.615 145.208 428.036 147.749C429.887 147.975 432.524 148.498 432.814 144.7C432.996 142.384 434.121 143.076 434.871 144.092C436.141 145.815 437.242 147.721 438.343 149.599C439.42 151.435 439.976 153.92 442.396 153.99C442.662 154.004 443.182 153.341 443.194 152.988C443.255 150.531 441.706 149.288 440.218 148.074C439.069 147.142 438.307 145.886 437.629 144.488C436.625 142.37 436.964 141.085 439.129 140.986C450.114 140.52 461.086 140.111 472.071 139.673C473.414 139.616 474.648 139.955 474.478 141.89C473.946 148.258 476.571 154.386 475.361 160.753ZM382.61 336.443C381.545 339.224 381.122 341.709 381.461 344.434C383.856 364.004 381.799 383.701 382.646 403.313C382.755 405.784 381.267 406.08 379.827 406.659C374.48 408.777 369.097 407.775 363.726 406.984C362.395 406.786 361.004 406.123 359.988 407.704C359.492 408.466 359.54 409.469 360.096 410.147C361.209 411.488 362.589 411.008 363.919 410.683C368.686 409.483 373.476 409.356 378.255 410.514C379.791 410.881 381.945 410.796 381.727 413.606C381.509 416.289 379.392 415.865 377.831 416.162C372.279 417.206 366.508 415.47 361.234 416.543C356.104 417.588 356.334 414.834 356.128 411.304C355.136 393.952 355.935 376.556 355.415 359.189C355.197 351.748 358.064 344.336 355.27 336.866C354.58 335.031 356.455 335.313 357.35 335.356C365.589 335.709 373.875 334.508 382.61 336.443ZM272.583 415.936C276.309 413.352 279.346 413.747 282.237 413.394C284.015 413.182 286.265 412.265 285.528 410.203C282.564 401.858 283.544 393.203 283.495 384.661C283.41 371.318 282.781 357.961 284.015 344.646C284.221 342.387 284.911 340.086 283.374 338.109C282.963 337.572 282.297 337.389 281.753 337.954C279.818 339.973 280.676 342.514 280.882 344.886C282.612 364.343 281.983 383.828 281.185 403.285C280.858 411.022 279.914 411.559 273.091 412.293C271.144 412.505 268.942 412.208 267.756 414.425C265.651 418.364 265.397 415.23 265.034 413.479C264.647 411.615 264.466 409.638 264.466 407.718C264.526 386.44 263.546 365.148 264.998 343.884C265.167 341.469 265.627 338.843 263.365 337.276C262.627 336.767 262.034 336.372 262.7 335.384C263.304 334.48 264.369 333.887 265.059 334.72C268.24 338.532 271.906 336.457 275.329 335.878C281.269 334.875 287.137 335.228 293.355 336.231C289.737 336.951 288.54 339.422 289.072 342.994C291.455 359.26 289.689 375.667 290.209 391.989C290.427 398.738 290.863 405.685 289.762 412.49C289.459 414.326 289.266 416.204 287.451 416.515C282.89 417.305 278.281 417.941 272.583 415.936ZM329.091 417.136C328.945 416.147 328.776 415.159 328.643 414.157C327.506 405.431 327.445 396.663 327.482 387.852C327.566 371.911 326.611 355.942 328.365 340.043C328.667 337.332 328.268 333.167 332.151 337.558C333.204 338.744 334.728 338.165 336.059 337.742C339.325 336.725 342.664 337.163 345.967 337.092C348.87 337.036 350.104 338.504 350.406 342.133C352.088 362.493 350.866 382.896 351.205 403.285C351.241 405.402 350.527 406.603 348.362 407.097C344.587 407.972 340.898 407.902 337.16 407.28C335.357 406.984 333.53 406.405 332.151 408.396C331.982 408.65 332.103 409.511 332.333 409.751C333.736 411.121 335.381 411.107 337.039 410.598C340.668 409.469 344.225 410.245 347.805 410.909C348.943 411.121 350.467 410.853 350.285 412.999C350.14 414.693 348.967 415.258 347.684 415.399C343.632 415.837 339.555 416.204 335.539 415.103C333.216 414.481 331.087 414.27 329.091 417.136ZM321.034 380.171C321.034 384.915 321.082 389.659 321.022 394.403C320.961 399.133 320.659 403.878 320.719 408.608C320.78 413.507 318.82 415.682 314.743 415.682C311.731 415.682 308.731 415.851 305.718 415.879C298.677 415.936 297.806 415.3 297.395 407.21C296.5 389.532 296.415 371.812 297.044 354.134C297.673 336.273 299.343 335.045 314.707 337.163C320.731 337.996 320.707 337.996 320.03 344.872C319.933 345.903 320.042 346.976 320.151 348.021C321.276 358.723 320.768 369.454 321.034 380.171ZM75.7934 197.704C75.9507 192.536 75.503 185.689 76.3135 178.855C76.7974 174.746 76.2772 169.846 81.9993 173.517C82.592 173.899 83.4874 173.701 84.2374 173.645C96.5285 172.826 108.408 176.751 120.518 178.135C124.74 178.615 129.264 178.375 133.341 180.591C134.394 181.156 136.111 180.845 136.378 182.37C136.728 184.39 134.623 184.361 133.74 185.42C133.329 185.914 132.76 186.253 132.24 186.592C115.558 197.394 99.4076 209.296 82.1808 218.954C78.1402 221.227 75.7692 219.731 75.7934 214.676C75.8176 209.565 75.7934 204.467 75.7934 197.704ZM172.464 337.149C179.88 337.05 179.88 337.05 179.844 345.282C179.844 345.635 179.844 345.988 179.88 346.341C181.719 365.825 180.533 385.367 180.739 404.88C180.86 415.794 179.699 416.811 170.384 416.43C167.141 416.303 165.472 415.004 165.073 410.966C164.347 403.765 164.456 396.578 164.42 389.349C164.335 374.805 163.754 360.262 164.734 345.719C165.303 337.29 165.387 337.233 172.464 337.149ZM624.741 177.005C620.664 177.231 616.6 176.92 612.535 176.652C610.502 176.511 609.547 175.537 609.438 173.136C609.027 164.156 609.051 155.204 609.801 146.239C610.079 142.864 611.543 141.268 614.543 141.339C621.33 141.494 628.116 141.607 634.903 141.48C637.661 141.424 638.375 142.836 638.847 145.73C640.153 153.821 639.21 161.869 639.137 169.931C639.089 175.466 637.262 177.796 632.423 177.076C629.895 176.694 627.306 177.005 624.741 177.005ZM320.901 250.723C321.457 256.159 320.175 261.327 319.993 266.593C319.896 269.431 318.13 269.926 316.594 269.629C311.779 268.725 307.037 269.276 302.234 269.544C300.553 269.643 298.315 269.7 297.915 266.269C296.887 257.19 296.161 248.125 297.577 239.018C298.194 235.064 298.266 231.803 293.488 232.438C291.842 232.65 291.117 231.196 291.734 229.784C292.701 227.567 294.697 229.021 296.222 228.866C297.298 228.753 299.222 227.694 299.222 230.504C299.234 234.641 301.617 233.794 303.65 233.328C307.835 232.382 311.973 232.128 316.207 233.06C318.602 233.596 319.776 234.599 320.09 237.719C320.526 242.096 321.094 246.417 320.901 250.723ZM414.45 223.981C414.487 224.997 414.523 226 414.559 227.016C307.218 226.565 199.865 226.127 92.5242 225.675C92.5242 225.11 92.5242 224.545 92.5363 223.981C199.841 223.981 307.146 223.981 414.45 223.981ZM161.661 336.16C156.846 337.728 157.246 341.257 157.621 344.731C158.165 349.616 158.649 354.459 158.552 359.429C158.298 373.125 157.935 386.849 158.468 400.517C158.697 406.221 157.584 411.093 155.976 416.147C155.455 417.785 154.33 417.574 153.387 417.517C152.237 417.461 149.939 417.348 150.157 416.684C151.403 413.055 148.681 410.711 148.451 407.563C147.483 394.615 148.245 381.639 147.798 368.678C147.459 358.921 148.427 349.108 148.693 339.309C148.729 337.925 148.669 336.683 149.999 336.513C153.508 336.09 156.967 334.466 161.661 336.16ZM700.181 161.982C699.939 164.834 699.443 169.366 699.213 173.913C699.08 176.468 697.955 177.287 696.056 177.302C691.544 177.316 687.043 177.33 682.531 177.231C681.249 177.203 679.845 177.33 679.543 175C678.394 165.935 677.837 156.842 679.204 147.763C679.761 144.064 681.37 141.424 685.313 141.791C688.592 142.087 691.931 141.847 695.221 141.579C697.58 141.381 698.717 142.102 699.177 145.081C699.975 150.15 700.072 155.204 700.181 161.982ZM198.474 415.893C193.998 416.67 192.716 414.665 192.437 410.457C191.07 389.419 190.901 368.395 192.304 347.357C192.437 345.423 192.837 343.446 191.361 341.949C190.865 341.455 190.223 341.498 189.715 342.006C188.203 343.517 188.59 345.507 188.82 347.414C189.34 351.762 190.066 356.026 189.921 360.517C189.643 368.932 189.655 377.389 189.933 385.805C190.284 395.985 189.098 406.08 189.159 416.218C189.159 417.108 188.99 418.124 188.01 418.082C187.09 418.039 186.909 417.065 186.836 416.176C186.751 415.3 186.752 414.411 186.643 413.549C184.683 398.498 185.868 383.32 185.481 368.212C185.239 358.582 185.203 348.84 186.558 339.238C186.764 337.77 186.993 334.805 188.276 335.963C191.445 338.815 194.591 337.163 197.76 337.304C198.97 337.36 200.289 337.572 200.313 339.521C200.337 341.032 199.551 341.836 198.317 341.794C194.772 341.667 194.905 344.477 195.196 347.216C197.337 367.887 196.708 388.558 195.45 409.243C195.256 412.01 195.159 414.594 198.474 415.893ZM494.233 158.523C493.846 163.394 493.991 168.618 492.915 173.475C491.584 179.49 486.939 175.607 483.866 176.257C482.063 176.638 478.749 178.29 478.071 173.842C476.934 166.401 476.16 158.861 477.321 151.378C477.89 147.735 476.293 142.497 479.208 140.774C481.955 139.151 485.959 140.647 489.394 140.379C492.262 140.153 493.193 141.904 493.399 144.671C493.737 149.204 493.955 153.75 494.233 158.523ZM745.184 160.923C745.535 165.794 744.785 170.284 744.337 174.816C744.01 178.106 741.954 177.57 740.284 177.4C738.712 177.245 736.183 178.728 735.82 175.607C734.816 166.924 734.006 158.226 735.409 149.444C736.062 145.363 738.567 145.956 740.889 145.688C743.406 145.405 744.301 146.789 744.543 149.627C744.869 153.496 745.438 157.308 745.184 160.923ZM729.651 160.993C729.868 165.427 729.009 169.776 728.864 174.153C728.707 179.052 725.417 176.878 723.481 177.527C721.509 178.191 720.638 177.005 720.299 174.506C719.21 166.641 718.981 158.833 719.852 150.912C720.239 147.382 721.11 145.702 724.521 145.575C728.235 145.434 728.816 147.778 729.034 151.011C729.251 154.343 729.445 157.675 729.651 160.993ZM762.604 159.61C762.604 158.565 762.641 157.506 762.592 156.461C762.399 151.844 763.33 147.721 765.979 144.106C767.056 142.638 768.242 142.525 769.56 142.68C771.072 142.85 770.649 144.318 770.818 145.504C772.173 154.894 771.871 164.241 770.927 173.687C770.589 177.09 769.79 177.64 767.274 177.612C764.842 177.584 763.391 177.316 763.306 173.743C763.209 169.027 762.169 164.368 762.604 159.61ZM511.896 162.434C511.618 165.752 511.291 169.056 511.061 172.374C510.867 175.169 510.142 177.061 507.238 176.553C504.867 176.144 502.436 177.118 501.77 172.487C500.693 164.919 502.544 157.492 501.698 149.952C501.371 147.015 504.323 147.015 506.174 146.916C507.904 146.832 510.432 145.843 510.686 149.401C510.988 153.764 512.67 157.944 511.896 162.434ZM655.783 176.596C653.811 172.543 653.678 168.505 654.416 164.297C654.67 162.829 654.646 160.711 652.723 160.824C651.198 160.909 651.138 162.914 651.307 164.199C651.779 167.743 651.634 171.188 650.969 174.661C650.642 176.341 649.856 176.991 648.452 177.033C646.964 177.076 646.408 176.2 646.057 174.591C644.871 169.239 644.617 163.789 645.125 158.381C645.488 154.527 646.843 150.743 643.516 147.185C647.255 146.662 650.666 146.634 654.078 146.676C657.477 146.719 657.308 149.811 657.32 152.352C657.332 156.108 655.045 154.527 653.412 154.329C652.965 154.273 652.517 154.16 652.069 154.103C650.739 153.934 649.214 153.369 648.44 155.134C648.077 155.967 648.077 157.294 648.38 158.184C649.045 160.118 650.593 159.539 651.912 159.356C652.952 159.2 653.981 158.847 655.033 158.72C656.679 158.508 657.671 159.469 657.792 161.361C658.082 166.599 657.404 171.682 655.783 176.596ZM144.543 415.922C143.842 415.597 143.902 414.877 143.842 414.185C142.027 396.14 142.838 378.039 142.946 359.952C142.995 351.889 143.588 343.714 140.95 335.92C140.539 334.692 140.914 333.435 142.039 334.169C143.394 335.031 145.693 336.203 145.39 337.968C144.35 344.095 146.552 349.786 146.539 355.772C146.539 366.475 146.297 377.178 146.443 387.88C146.552 397.213 147.12 406.758 144.543 415.922ZM715.109 167.319C714.94 167.333 714.771 167.333 714.601 167.347C714.601 169.62 714.613 171.894 714.601 174.167C714.589 177.019 713.077 177.739 710.996 177.429C708.867 177.104 706 178.968 705.238 174.562C704.161 168.321 703.919 162.067 704.56 155.755C704.875 152.649 705.806 150.361 709.037 150.63C711.916 150.87 713.936 151.999 714.154 155.826C714.384 159.666 714.783 163.493 715.109 167.319ZM283.495 250.892C282.975 246.007 283.737 241.503 284.354 236.985C284.572 235.375 284.16 233.158 286.568 233.356C288.528 233.511 288.782 235.192 289.133 237.013C291.056 246.995 289.774 256.936 289.096 266.904C288.951 269.05 287.729 269.446 286.302 269.544C284.717 269.657 284.294 268.598 284.342 266.876C284.511 261.397 282.709 256.103 283.495 250.892ZM806.325 201.517C806.349 202.039 806.361 202.561 806.385 203.07C779.214 204.227 752.043 203.451 724.872 202.448C729.747 201.912 734.344 200.359 739.522 201.262C746.587 202.491 753.93 201.531 761.165 201.517C776.214 201.502 791.275 201.517 806.325 201.517ZM670.833 177.203C669.199 172.614 668.837 168.915 669.683 165.046C670.022 163.507 670.179 161.841 668.776 160.796C668.522 160.598 667.832 160.739 667.603 161.022C666.647 162.151 666.695 163.591 667.095 164.975C668.074 168.35 666.949 171.555 666.574 174.831C666.369 176.624 665.377 177.019 663.998 177.033C662.546 177.047 661.772 176.539 661.651 174.689C661.53 172.769 661.118 170.877 660.913 168.957C659.836 159.186 660.114 158.861 668.389 159.61C668.982 159.666 669.623 159.737 670.179 159.553C671.97 158.946 672.72 159.723 672.708 161.827C672.72 166.712 672.998 171.64 670.833 177.203ZM553.197 139.856C555.048 142.257 555.616 144.544 557.673 144.121C561.737 143.288 561.737 146.747 561.822 149.655C561.931 153.567 558.919 152.959 557.177 152.79C553.56 152.437 550.015 152.437 546.41 152.705C544.196 152.875 541.341 153.101 541.716 148.469C542.067 144.163 544.269 144.318 546.821 145.038C550.051 145.914 552.943 146.239 553.197 139.856ZM439.613 217.217C439.299 219.265 439.008 221.326 438.682 223.374C438.343 225.506 437.327 225.986 435.79 224.828C432.016 221.99 428.738 218.432 425.58 214.732C423.862 212.713 424.612 211.414 426.826 210.864C429.548 210.172 432.222 211.428 434.847 211.245C438.899 210.962 439.831 213.151 439.613 217.217ZM597.885 176.525C592.937 176.44 591.34 174.068 591.473 167.277C591.534 164.495 592.634 162.137 594.897 163.521C597.776 165.272 603.752 160.062 603.619 168.576C603.522 175.522 602.724 176.61 597.885 176.525ZM546.507 176.751C543.18 177.88 541.873 176.257 542.103 172.303C542.188 170.948 541.583 169.564 541.559 168.18C541.523 165.879 539.962 162.123 543.882 162.589C546.628 162.928 551.176 161.191 550.862 167.714C550.789 169.112 550.596 170.552 550.825 171.894C551.576 176.172 550.293 177.88 546.507 176.751ZM586.477 175.113C586.09 175.141 585.703 175.169 585.303 175.198C584.892 173.009 584.42 170.835 584.106 168.632C583.888 167.079 583.743 165.483 583.815 163.93C584.565 145.787 581.831 146.676 600.292 148.06C600.437 148.074 600.595 148.102 600.74 148.131C601.671 148.399 603.159 147.905 603.159 149.67C603.159 151.406 602.204 152.719 600.582 152.663C597.679 152.564 594.752 153.425 592.078 150.616C589.441 147.848 586.779 149.302 586.549 153.327C586.428 155.515 585.993 157.421 585.025 159.257C584.457 160.33 583.888 162.01 584.783 162.66C589.9 166.302 586.525 170.905 586.477 175.113ZM574.754 175.664C568.996 175.678 567.52 173.376 567.447 166.557C567.423 163.973 568.488 161.742 570.496 162.885C572.71 164.156 577.67 160.231 577.065 166.782C576.775 169.959 578.48 174.887 574.754 175.664ZM529.449 166.528C529.643 165.102 529.74 163.14 530.223 161.332C530.574 159.991 531.3 158.819 532.837 160.287C537.264 164.495 538.147 168.449 536.369 174.845C535.679 177.302 534.325 176.949 532.861 176.878C531.409 176.821 530.272 176.511 530.211 174.266C530.151 171.851 529.752 169.437 529.449 166.528ZM666.647 145.448C668.449 145.603 670.264 145.702 672.067 145.914C673.034 146.027 673.555 146.309 673.397 147.905C672.938 152.409 665.752 157.04 662.425 154.724C661.977 154.414 661.59 153.736 661.433 153.129C659.945 147.269 661.324 145.293 666.647 145.448ZM430.286 202.378C432.077 202.773 434.593 203.267 437.085 203.889C438.065 204.129 438.621 205.018 438.597 206.19C438.573 207.616 437.557 207.475 436.71 207.814C431.06 210.115 425.181 206.204 419.471 208.76C418.382 209.254 417.027 207.009 416.18 205.541C415.805 204.905 415.733 204.143 416.434 203.818C417.826 203.183 419.144 202.561 420.62 204.002C422.495 205.837 424.467 205.639 426.197 203.507C427.129 202.364 428.363 202.448 430.286 202.378ZM754.644 172.699C752.721 167.997 753.096 163.196 753.749 158.381C754.088 155.826 755.225 153.256 751.378 152.635C749.103 152.268 750.253 148.766 749.43 146.832C749.152 146.168 751.402 145.801 752.575 145.871C753.93 145.942 755.273 146.196 756.616 146.422C757.717 146.606 758.794 147.072 758.806 148.582C758.806 149.91 758.963 151.646 757.366 151.999C755.455 152.423 754.692 153.764 755.201 155.755C756.664 161.474 753.459 166.994 754.644 172.699ZM534.034 144.304C536.623 144.205 538.522 145.674 538.45 148.088C538.377 150.63 536.006 151.533 533.998 151.703C532.558 151.816 530.78 150.587 529.752 152.225C528.397 154.386 526.993 153.411 525.893 152.536C524.042 151.039 525.856 149.034 525.82 147.241C525.784 145.589 526.679 144.474 528.106 144.742C530.236 145.123 532.292 145.151 534.034 144.304ZM555.677 166.952C555.785 165.766 555.882 164.368 556.039 162.97C556.209 161.544 556.511 160.033 557.927 159.709C559.475 159.356 559.088 161.445 559.838 162.151C564.157 166.288 560.661 171.315 560.878 175.904C560.939 177.132 559.632 177.146 558.701 177.005C557.636 176.836 556.584 176.666 556.439 175.014C556.221 172.402 555.955 169.79 555.677 166.952ZM296.633 423.49C296.766 423.49 295.399 423.687 295.097 422.304C294.746 420.694 296.064 420.256 297.117 420.242C304.617 420.143 312.118 420.101 319.618 420.157C320.61 420.157 321.941 420.623 321.663 422.275C321.421 423.716 320.175 423.024 319.364 423.052C312.19 423.278 304.992 422.388 296.633 423.49ZM519.795 175.607C518.743 175.282 518.779 174.506 518.646 173.856C517.158 166.585 517.86 159.271 518.38 151.957C518.465 150.729 517.182 148.78 519.021 148.469C520.884 148.159 520.884 150.489 520.981 151.886C521.477 159.822 521.296 167.743 519.795 175.607ZM350.66 421.442C350.503 421.711 350.37 422.219 350.189 422.247C342.555 423.363 334.897 422.826 327.252 422.727C326.526 422.713 325.643 422.388 325.933 421.16C326.175 420.157 326.998 420.101 327.772 420.101C334.692 420.073 341.624 420.044 348.543 420.016C349.475 420.002 350.358 420.129 350.66 421.442ZM632.617 184.912C632.617 184.87 632.617 184.841 632.617 184.799C630.826 184.926 629.036 185.081 627.245 185.166C626.205 185.208 624.947 185.307 624.862 183.627C624.79 182.173 625.298 180.648 626.774 180.62C630.802 180.563 634.843 180.676 638.871 180.803C640.069 180.845 640.807 181.636 640.734 183.161C640.661 184.517 639.827 184.884 638.871 184.898C636.778 184.954 634.697 184.912 632.617 184.912ZM462.127 201.601C462.139 201.107 462.151 200.627 462.163 200.133C471.357 200.133 480.551 200.133 489.745 200.133C489.745 200.74 489.757 201.333 489.757 201.94C480.539 201.516 471.345 202.844 462.127 201.601ZM566.601 201.997C566.637 201.531 566.685 201.051 566.722 200.585C575.686 200.585 584.65 200.585 593.614 200.585C593.614 201.149 593.626 201.714 593.626 202.265C584.614 202.35 575.625 203.112 566.601 201.997ZM559.681 200.641C555.241 203.154 535.849 203.027 531.252 200.641C541.281 200.641 550.475 200.641 559.681 200.641ZM628.37 202.152C619.418 201.531 610.321 204.213 601.441 201.164C610.418 201.573 619.455 199.243 628.37 202.152ZM636.343 201.601C645.404 201.742 654.477 200.006 663.502 201.954C654.428 202.844 645.355 203.352 636.343 201.601ZM379.755 421.852C372.678 422.755 365.637 423.772 358.512 422.798C357.616 422.671 356.528 422.741 356.915 421.146C357.145 420.186 357.883 419.776 358.693 420.299C361.185 421.88 363.701 420.666 366.194 420.468C370.766 420.101 375.279 420.595 379.755 421.852ZM363.085 143.062C370.984 143.062 378.896 143.062 386.796 143.062C378.908 144.968 371.033 144.304 363.085 143.062ZM670.82 201.954C678.696 201.192 686.584 199.963 694.411 201.94C686.547 203.705 678.672 202.491 670.82 201.954ZM193.03 423.306C190.478 423.475 188.397 423.645 186.304 423.716C185.53 423.744 184.731 423.363 184.634 422.36C184.55 421.372 185.227 420.934 186.001 420.637C188.203 419.804 190.453 419.917 192.631 420.468C195.147 421.103 199.889 419.028 199.744 421.612C199.575 424.986 195.099 422.614 193.03 423.306ZM180.267 421.64C174.388 424.605 167.214 424.365 163.149 421.075C169.343 420.807 174.811 419.564 180.267 421.64ZM524.622 201.291C517.315 203.846 510.021 200.768 502.69 200.994C509.984 198.749 517.291 200.288 524.622 201.291ZM266.825 422.812C274.071 421.343 281.318 419.409 288.6 422.812C281.342 422.812 274.083 422.812 266.825 422.812ZM723.493 185.364C721.497 183.782 717.517 186.79 717.408 183.274C717.299 179.575 721.231 180.958 723.287 181.156C725.525 181.382 729.651 179.547 729.639 183.387C729.626 186.606 725.513 183.881 723.493 185.364ZM577.549 155.36C576.629 150.136 573.859 151.505 571.367 151.957C570.194 152.169 568.911 152.508 568.403 150.672C568.161 149.768 568.403 148.738 569.056 148.371C571.839 146.775 574.682 148.074 577.222 149.048C579.146 149.783 578.734 152.366 577.549 155.36ZM196.998 303.685C189.026 303.685 182.457 303.685 175.9 303.685C175.912 303.219 175.924 302.739 175.948 302.273C182.529 302.838 189.171 301.158 196.998 303.685ZM198.293 360.262C198.583 360.262 198.885 360.262 199.176 360.262C199.176 371.191 199.176 382.105 199.176 393.034C198.885 393.034 198.583 393.034 198.293 393.034C198.293 382.105 198.293 371.177 198.293 360.262ZM700.024 180.93C699.564 180.958 700.314 180.874 701.052 180.874C702.419 180.874 703.46 181.608 703.508 183.232C703.581 185.533 701.899 184.785 700.895 184.827C699.274 184.898 697.641 184.686 696.02 184.545C695.112 184.46 694.145 184.277 694.314 182.808C694.447 181.622 695.221 181.057 696.177 180.958C697.048 180.845 697.943 180.93 700.024 180.93ZM409.914 144.219C402.45 144.219 396.123 145.25 389.832 143.584C396.147 143.542 402.498 141.283 409.914 144.219ZM715.545 146.027C710.754 151.025 708.286 151.152 705.117 146.775C708.492 146.168 711.637 144.883 715.545 146.027ZM142.946 423.419C150.495 420.623 154.875 420.666 157.584 423.419C152.915 423.419 148.56 423.419 142.946 423.419ZM734.115 195.516C732.046 191.534 734.127 187.877 732.409 184.855C731.719 183.641 731.804 182.286 733.038 181.82C734.623 181.227 735.191 182.78 735.397 184.192C735.905 187.792 735.651 191.336 734.115 195.516ZM313.582 281.955C315.783 285.951 315.178 290.088 314.392 295.595C312.239 290.286 312.444 286.163 313.582 281.955ZM686.656 184.658C685.483 184.107 683.112 186.183 682.918 183.076C682.785 180.86 684.817 180.817 686.305 180.888C687.975 180.958 690.479 180.14 690.418 183.189C690.382 185.703 688.12 184.248 686.656 184.658ZM219.862 422.515C215.943 424.069 211.902 422.459 207.971 423.363C207.136 423.56 205.986 423.475 206.12 421.936C206.204 420.906 207.16 420.581 207.886 420.779C211.818 421.838 216.015 420.412 219.862 422.515ZM581.444 167.757C580.198 162.25 580.368 156.701 581.021 151.166C582.473 156.659 582.267 162.194 581.444 167.757ZM345.253 276.011C344.14 274.98 341.551 277.423 341.418 274.458C341.297 271.507 344.055 272.538 345.616 272.1C347.273 271.634 348.955 272.312 348.906 274.373C348.834 277.254 346.584 275.178 345.253 276.011ZM271.41 276.519C270.103 276.294 268.313 276.745 268.567 274.289C268.736 272.566 269.74 271.634 271.41 271.733C273.14 271.846 274.531 272.622 274.458 274.67C274.386 276.816 272.656 276.463 271.41 276.519ZM391.368 180.704C392.808 180.549 393.982 180.38 395.155 180.323C396.861 180.267 397.478 181.523 397.623 183.274C397.708 184.291 397.998 185.533 397.091 186.112C395.687 186.988 394.889 185.491 394.163 184.517C393.316 183.401 391.707 183.147 391.368 180.704ZM710.295 184.968C709.073 184.63 706.871 186.197 707.016 183.246C707.137 180.69 709.375 181.043 710.912 180.916C712.291 180.803 714.323 180.478 714.19 183.062C714.009 186.169 711.637 184.333 710.295 184.968ZM585.582 144.403C590.191 142.017 593.687 143.358 597.207 144.502C593.723 145.801 590.263 146.126 585.582 144.403ZM384.679 256.667C384.679 252.488 384.679 248.309 384.679 244.143C386.009 248.295 386.215 252.46 384.679 256.667ZM661.3 184.686C660.066 184.785 658.554 185.053 658.517 183.091C658.481 180.944 660.138 180.973 661.505 180.86C662.812 180.747 664.131 180.987 664.227 182.752C664.385 185.42 662.292 184.037 661.3 184.686ZM602.881 181.933C603.196 181.396 602.748 179.462 604.321 179.857C605.591 180.182 606.68 181.495 606.861 183.076C607.006 184.375 605.881 184.545 604.974 184.587C603.631 184.658 602.554 184.39 602.881 181.933Z" fill="white"/>
<path d="M-44.5146 349.997C-37.8489 342.5 -33.1188 333.223 -27.5902 324.695C-18.1905 310.18 -9.09313 295.397 0.137257 280.727C9.30716 266.156 18.4649 251.584 27.6469 237.027C36.8047 222.512 46.0835 208.096 55.1445 193.496C59.6569 186.239 64.1572 179.01 69.589 172.628C70.6778 171.343 72.3351 169.536 70.3269 167.771C68.3429 166.034 67.4234 168.208 66.6008 169.917C58.3987 186.818 47.6925 201.658 37.9783 217.302C27.2115 234.641 16.3478 251.895 5.48425 269.135C-5.40349 286.417 -16.3517 303.643 -27.2636 320.897C-32.6228 329.383 -37.9699 337.883 -43.317 346.369C-44.0186 347.47 -45.047 348.458 -44.4058 350.11C-44.4058 350.124 -44.5146 349.997 -44.5146 349.997Z" fill="white"/>
<path d="M380.143 317.748C381.196 317.748 382.26 317.861 383.3 317.72C384.22 317.593 385.055 317.042 385.127 315.757C385.212 314.204 384.329 313.527 383.216 313.315C382.333 313.145 381.389 313.089 380.518 313.286C370.647 315.419 360.727 314.67 350.77 314.529C333.652 314.289 316.534 314.896 299.416 314.783C284.972 314.684 270.516 315.531 256.107 313.625C255.357 313.527 254.595 313.47 253.845 313.569C252.648 313.738 251.232 313.936 251.353 315.856C251.462 317.635 252.793 317.889 254.039 318.031C254.486 318.073 254.946 318.045 255.394 318.016C293.961 315.009 332.564 317.692 371.142 316.845C374.131 316.774 377.143 317.423 380.143 317.748Z" fill="white"/>
<path d="M9.1121 414.99C11.9308 415.625 14.9673 415.385 17.8828 416.571C23 418.661 25.6132 417.277 28.2989 411.431C28.5166 410.965 28.5892 410.316 28.9037 410.034C32.4362 406.984 34.1177 401.83 37.0332 398.696C45.2958 389.857 49.179 377.107 58.1554 368.861C60.962 366.277 62.329 360.756 65.5469 357.523C66.2728 356.789 66.8898 355.165 65.8736 354.247C64.3614 352.892 63.309 354.53 62.6073 355.772C58.3732 363.312 52.6511 369.539 48.8646 377.474C47.4855 380.368 45.4288 382.783 43.1423 384.873C40.747 387.061 38.5575 389.461 37.7832 393.118C37.7107 393.457 37.5776 393.81 37.3841 394.05C33.4524 398.766 30.0651 403.962 26.7503 409.285C22.9275 415.427 17.3143 414.354 11.9309 413.281C9.41464 412.773 6.98301 411.742 4.49093 411.064C3.22069 410.711 1.95044 410.966 1.75688 412.829C1.55122 414.665 2.71258 415.357 4.01911 415.371C5.67646 415.385 7.32167 415.131 9.1121 414.99Z" fill="white"/>
<path d="M1243.55 351.169C1250.48 353.315 1258.32 355.73 1266.15 358.172C1266.88 358.398 1267.54 358.892 1268.28 359.062C1270.34 359.528 1273.41 361.956 1274.16 358.568C1274.95 354.981 1271.55 354.007 1268.96 353.668C1262.92 352.878 1257.11 351.197 1251.6 348.204C1250.51 347.611 1249.38 347.032 1248.13 347.413C1240.98 349.588 1237.69 347.667 1234.65 339.45C1234.07 337.869 1233.35 336.344 1231.7 337.318C1230 338.32 1231.12 339.888 1231.39 341.413C1232.63 348.275 1238.48 352.496 1238.98 359.796C1239.09 361.363 1240.09 363.044 1241.79 362.154C1243.75 361.123 1243.09 359.358 1242.14 357.791C1241.62 356.93 1241 356.153 1240.47 355.306C1239.86 354.346 1238.76 353.428 1239.35 352.129C1240.02 350.604 1241.42 351.07 1243.55 351.169Z" fill="white"/>
<path d="M1141.18 276.209C1141.51 264.32 1140.36 252.389 1141.9 240.529C1142.1 238.947 1142.38 237.31 1141.26 236.067C1140.68 235.432 1139.76 235.432 1139.18 236.067C1138.05 237.31 1138.3 238.976 1138.55 240.543C1140.58 253.971 1139.09 267.483 1139.41 280.953C1139.51 285.725 1139.22 290.371 1138.61 295.058C1138.37 296.894 1138.22 299.548 1140.54 299.407C1142.32 299.294 1142.38 296.908 1142.12 295.129C1141.16 288.846 1140.93 282.549 1141.18 276.209Z" fill="white"/>
<path d="M952.9 236.745C954.933 246.713 954.037 256.809 952.973 266.932C952.803 268.5 953.033 270.42 954.86 270.462C956.687 270.505 956.929 268.584 956.82 267.003C956.566 263.177 956.07 259.364 955.792 255.538C955.332 249.198 955.985 242.943 956.784 236.688C957.001 234.994 957.001 232.707 954.921 232.65C952.767 232.594 953.094 234.923 952.9 236.745Z" fill="white"/>
<path d="M79.0977 348.402C79.5211 350.732 80.9366 351.311 82.4488 350.252C88.4975 345.988 95.1752 344.293 102.022 343.107C103.244 342.895 104.926 342.246 104.26 340.071C103.656 338.109 102.083 338.222 100.849 339.027C94.7519 343.022 88.2192 345.253 81.2994 346.213C79.6904 346.439 79.134 347.399 79.0977 348.402Z" fill="white"/>
<path d="M854.764 223.713C855.018 223.515 855.635 223.275 855.926 222.767C856.506 221.75 855.744 220.945 855.139 220.719C849.962 218.785 845.292 215.679 840.55 212.671C839.836 212.219 838.602 212.092 838.13 213.208C837.622 214.38 838.542 215.297 839.304 215.693C842.183 217.175 845.147 218.404 848.038 219.858C850.228 220.959 851.861 223.388 854.764 223.713Z" fill="white"/>
<path d="M962.601 251.076C964.174 255.975 962.831 261.171 962.577 266.367C962.504 267.751 962.577 269.714 963.932 269.855C965.831 270.053 965.891 267.723 965.674 266.396C964.827 261.129 965.226 255.947 965.734 250.709C965.867 249.382 965.722 247.475 964.174 247.49C962.589 247.504 962.806 249.424 962.601 251.076Z" fill="white"/>
<path d="M558.69 136.228C563.613 134.745 568.525 134.788 573.461 136.214C574.477 136.51 575.638 136.778 576.304 135.465C576.57 134.957 576.594 134.068 576.4 133.489C575.904 132.006 574.755 132.091 573.715 132.444C568.779 134.124 563.843 133.319 558.919 132.416C557.71 132.19 556.452 131.71 555.774 133.362C555.556 133.898 555.593 134.816 555.859 135.324C556.5 136.581 557.625 136.411 558.69 136.228Z" fill="white"/>
<path d="M504.989 134.844C507.348 135.211 509.562 135.663 511.788 135.875C512.937 135.974 514.486 135.974 514.607 134.138C514.752 132.119 513.046 131.935 512.03 132.232C507.675 133.503 503.416 132.528 499.122 131.978C497.948 131.822 496.279 132.077 496.242 133.672C496.182 135.762 498.057 135.762 499.315 135.719C501.251 135.635 503.162 135.141 504.989 134.844Z" fill="white"/>
<path d="M549.52 132.359C545.818 134.181 541.983 132.74 538.136 132.26C536.926 132.119 535.305 132.303 535.208 133.884C535.075 136.002 536.987 136.284 538.16 135.945C542.08 134.802 545.902 135.465 549.774 136.087C550.911 136.27 552.496 136.101 552.471 134.223C552.447 132.274 550.802 132.67 549.52 132.359Z" fill="white"/>
<path d="M520.886 135.959C523.849 134.575 526.789 135.324 529.741 135.931C530.793 136.143 531.979 135.775 531.955 134.109C531.931 132.415 530.648 132.062 529.692 132.429C526.68 133.601 523.789 132.697 520.849 132.217C519.652 132.02 518.139 132.231 518.139 134.011C518.139 135.846 519.748 135.648 520.886 135.959Z" fill="white"/>
<rect y="-15" width="1279" height="378" fill="url(#paint0_linear)"/>
</g>
</g>
<defs>
<linearGradient id="paint0_linear" x1="639.5" y1="-15" x2="639.5" y2="363" gradientUnits="userSpaceOnUse">
<stop stop-color="#081137" stop-opacity="0.97"/>
<stop offset="0.484375" stop-color="#081137" stop-opacity="0.95"/>
<stop offset="0.828125" stop-color="#081137" stop-opacity="0.8"/>
<stop offset="0.901042" stop-color="#081137"/>
<stop offset="0.9998" stop-color="#081137"/>
</linearGradient>
<clipPath id="clip0">
<rect width="1280" height="355" fill="white"/>
</clipPath>
<clipPath id="clip1">
<rect width="1346" height="765" fill="white" transform="translate(0 -134)"/>
</clipPath>
</defs>
</svg>
